<svg id="Draw_Layer" data-name="Draw Layer" xmlns="http://www.w3.org/2000/svg" viewBox="0 0 1536 2048"><defs><style>.cls-1{fill:#013440;}.cls-2{fill:#552077;}.cls-3{fill:#772da7;}.cls-4{fill:#9b3ada;}.cls-5{fill:#b7b7b7;}.cls-6{fill:#8632bc;}.cls-7{fill:#ffe4a0;}</style></defs><title>starsbackground</title><path class="cls-1" d="M0,0V2048H1536V0ZM1064.063,689.043c.55-.168,1.093-.359,1.636-.563l.121-.054c.235-.1.469-.2.7-.317a12.691,12.691,0,0,0,1.48-.953,3.085,3.085,0,0,0,.4-.351c.1-.106.191-.211.285-.325a9.877,9.877,0,0,0,.711-1.113c.211-.371.422-.746.629-1.117a.514.514,0,0,1,.449-.262.5.5,0,0,1,.258.075.484.484,0,0,1,.246.5.362.362,0,0,1-.086.214.588.588,0,0,1,.152-.027.542.542,0,0,1,.391.184.451.451,0,0,1,.125.351c-.047.555-.09,1.1-.1,1.657a11.788,11.788,0,0,0,.059,1.4c.054.39.121.773.211,1.156a8.73,8.73,0,0,0,.32,1.031c.086.207.176.414.281.614a6.594,6.594,0,0,0,.375.609l.086.129a.441.441,0,0,1,.059.367.517.517,0,0,1-.254.336.466.466,0,0,1-.25.074.485.485,0,0,1-.383-.191.153.153,0,0,1-.047-.082,1.362,1.362,0,0,1-.254.371,5.527,5.527,0,0,1-.551.508l-.121.062a3.092,3.092,0,0,1,.59-.164.524.524,0,0,1,.145-.023.487.487,0,0,1,.25.074.5.5,0,0,1,.242.312.528.528,0,0,1-.07.43.455.455,0,0,1-.3.211,3.653,3.653,0,0,0-.852.266l-.1.039-.172.074c-.192.074-.383.152-.563.242-.254.125-.5.258-.746.395a13.566,13.566,0,0,0-1.39.914l-.278.222-.429.352c-.2.16-.375.324-.563.492l-.086.082-.086.082a.582.582,0,0,1-.375.149.509.509,0,0,1-.363-.157.464.464,0,0,1-.121-.421.63.63,0,0,1-.192.039.393.393,0,0,1-.128-.024.521.521,0,0,1-.375-.625l.054-.3c.047-.254.09-.508.141-.851.023-.254.047-.508.047-.762,0-.172,0-.344-.008-.516l-.012-.2-.012-.1c-.042-.242-.085-.489-.152-.735-.051-.179-.113-.355-.176-.527l-.035-.1a4.53,4.53,0,0,0-.414-.765,4.2,4.2,0,0,0-.652-.625c-.3-.211-.617-.414-.934-.614a.523.523,0,0,1,.266-.972.446.446,0,0,1,.25.074l.3.219a.537.537,0,0,1,.383-.469Zm-473.7,222.535a.454.454,0,0,1,.082-.109l.086-.09.211-.406a1.253,1.253,0,0,1,.137-.231.314.314,0,0,1,.222-.105.221.221,0,0,1,.125.039.334.334,0,0,1,.165.238.451.451,0,0,1,.011.223.243.243,0,0,1-.008.121l-.039.156a3.22,3.22,0,0,0-.129.6c0,.164,0,.324.012.484l.043.156.035.18a3.7,3.7,0,0,0,.242.723,2.466,2.466,0,0,0,.188.277l.066.09-.007.008.086.082a.268.268,0,0,1,.242-.188.283.283,0,0,1,.285.262.358.358,0,0,1-.094.23.243.243,0,0,1,.035.2.2.2,0,0,1-.113.136.271.271,0,0,1,.094.266.287.287,0,0,1-.313.2.026.026,0,0,1-.015,0l-.145-.031-.187-.043a2.7,2.7,0,0,0-.375-.055v-.011l-.125.046a1,1,0,0,0-.243.067l-.086.047a1.142,1.142,0,0,0-.105.121c-.047.062-.094.129-.18.254l-.14.2-.039.109c-.028.078-.059.153-.09.227l-.024.113a1.015,1.015,0,0,1-.066.223c-.031.086-.129.14-.277.14a.046.046,0,0,1-.02,0,.26.26,0,0,1-.207-.254l.008-.118a.933.933,0,0,0,0-.183l0-.18a2.121,2.121,0,0,0-.117-.34l-.086-.2-.078-.176-.043-.1-.051-.117a2.135,2.135,0,0,0-.227-.352l-.078-.094a2.166,2.166,0,0,0-.164-.16l-.074-.078-.113-.086a.573.573,0,0,1-.117-.094l-.137-.14-.125-.118-.063-.078-.1-.14-.008.008-.067-.082a.248.248,0,0,1,.02-.215.261.261,0,0,1,.223-.149l.148.016a.248.248,0,0,1,.1-.024h.011a.075.075,0,0,1,.024,0c.012,0,.039,0,.082,0l.129-.027.129-.008.093-.043.118-.05.144-.09a1.462,1.462,0,0,1,.188-.145l.148-.125a1.177,1.177,0,0,0,.156-.16l.2-.207a.49.49,0,0,1,.079-.133.2.2,0,0,1,.1-.1.206.206,0,0,1,.1-.144.3.3,0,0,1,.078-.16l.008.008.023-.106Z"/><path class="cls-2" d="M400.463,712.917a4.25,4.25,0,1,0,4.25-4.25,4.289,4.289,0,0,0-4.25,4.25Z"/><path class="cls-2" d="M519.677,997.082a4.25,4.25,0,1,0,4.25-4.25,4.291,4.291,0,0,0-4.25,4.25Z"/><path class="cls-2" d="M725.966,890.459a4.25,4.25,0,1,0,4.25-4.25,4.291,4.291,0,0,0-4.25,4.25Z"/><path class="cls-2" d="M641.456,720.175a4.25,4.25,0,1,0,4.25-4.25,4.291,4.291,0,0,0-4.25,4.25Z"/><path class="cls-2" d="M633.721,1328.483a4.25,4.25,0,1,0,4.25-4.25,4.291,4.291,0,0,0-4.25,4.25Z"/><path class="cls-2" d="M398.185,1445.274a4.25,4.25,0,1,0,4.25-4.25,4.29,4.29,0,0,0-4.25,4.25Z"/><path class="cls-2" d="M839.792,1419.118a4.25,4.25,0,1,0,4.25-4.25,4.29,4.29,0,0,0-4.25,4.25Z"/><path class="cls-2" d="M835.113,1151.378a4.25,4.25,0,1,0,4.25-4.25,4.29,4.29,0,0,0-4.25,4.25Z"/><path class="cls-2" d="M466.952,1244.76a4.25,4.25,0,1,0,4.25-4.25,4.291,4.291,0,0,0-4.25,4.25Z"/><path class="cls-2" d="M944.6,802.479a4.25,4.25,0,1,0,4.25-4.25,4.289,4.289,0,0,0-4.25,4.25Z"/><path class="cls-2" d="M816.588,590.452a4.25,4.25,0,1,0,4.25-4.25,4.29,4.29,0,0,0-4.25,4.25Z"/><path class="cls-2" d="M957.165,1093.738a4.25,4.25,0,1,0,4.25-4.25,4.29,4.29,0,0,0-4.25,4.25Z"/><path class="cls-2" d="M962.908,1404.967a4.25,4.25,0,1,0,4.25-4.25,4.289,4.289,0,0,0-4.25,4.25Z"/><path class="cls-2" d="M678.207,1563.738a4.25,4.25,0,1,0,4.25-4.25,4.29,4.29,0,0,0-4.25,4.25Z"/><path class="cls-2" d="M485.123,1415.208a4.25,4.25,0,1,0,4.25-4.25,4.29,4.29,0,0,0-4.25,4.25Z"/><path class="cls-2" d="M620.093,1166.729a4.25,4.25,0,1,0,4.25-4.25,4.29,4.29,0,0,0-4.25,4.25Z"/><path class="cls-2" d="M389.031,907.1a4.25,4.25,0,1,0,4.25-4.25,4.291,4.291,0,0,0-4.25,4.25Z"/><path class="cls-2" d="M482.572,646.4a4.25,4.25,0,1,0,4.25-4.25,4.29,4.29,0,0,0-4.25,4.25Z"/><path class="cls-2" d="M294.8,602.111a4.25,4.25,0,1,0,4.25-4.25,4.29,4.29,0,0,0-4.25,4.25Z"/><path class="cls-2" d="M283.377,829.344a4.25,4.25,0,1,0,4.25-4.25,4.289,4.289,0,0,0-4.25,4.25Z"/><path class="cls-2" d="M561.339,1263.949a4.25,4.25,0,1,0,4.25-4.25,4.29,4.29,0,0,0-4.25,4.25Z"/><path class="cls-2" d="M755.132,1056.705a4.25,4.25,0,1,0,4.25-4.25,4.291,4.291,0,0,0-4.25,4.25Z"/><path class="cls-2" d="M595.047,848.952a4.25,4.25,0,1,0,4.25-4.25,4.291,4.291,0,0,0-4.25,4.25Z"/><path class="cls-2" d="M796,728a4.25,4.25,0,1,0,4.25-4.25A4.291,4.291,0,0,0,796,728Z"/><path class="cls-3" d="M680.745,1160.473a7.25,7.25,0,1,0,7.25-7.25,7.316,7.316,0,0,0-7.25,7.25Z"/><path class="cls-3" d="M417.052,1331.193a7.25,7.25,0,1,0,7.25-7.25,7.316,7.316,0,0,0-7.25,7.25Z"/><path class="cls-3" d="M436.492,815.484a7.25,7.25,0,1,0,7.25-7.25,7.315,7.315,0,0,0-7.25,7.25Z"/><path class="cls-3" d="M645.9,581.576a7.25,7.25,0,1,0,7.25-7.25,7.316,7.316,0,0,0-7.25,7.25Z"/><path class="cls-3" d="M1006.317,981.585a7.25,7.25,0,1,0,7.25-7.25,7.316,7.316,0,0,0-7.25,7.25Z"/><path class="cls-3" d="M778.46,869.069a7.25,7.25,0,1,0,7.25-7.25,7.316,7.316,0,0,0-7.25,7.25Z"/><path class="cls-3" d="M888.589,1359.331a7.25,7.25,0,1,0,7.25-7.25,7.316,7.316,0,0,0-7.25,7.25Z"/><path class="cls-3" d="M678.044,1482.652a7.25,7.25,0,1,0,7.25-7.25,7.316,7.316,0,0,0-7.25,7.25Z"/><path class="cls-4" d="M649.291,581.867a4,4,0,1,0,4-4,4.039,4.039,0,0,0-4,4Z"/><path class="cls-4" d="M438.459,815.83a4,4,0,1,0,4-4,4.039,4.039,0,0,0-4,4Z"/><path class="cls-4" d="M781.756,869.662a4.013,4.013,0,0,0,1.375,2.735,4.2,4.2,0,0,0,2.906.961,4,4,0,0,0,2.32-7.016,4.192,4.192,0,0,0-2.906-.961,4.011,4.011,0,0,0-3.7,4.281Z"/><path class="cls-4" d="M1010.184,979.364A4,4,0,0,0,1010.7,985a4.27,4.27,0,0,0,2.926.907,3.864,3.864,0,0,0,2.711-1.426,4.006,4.006,0,0,0-.52-5.637,4.274,4.274,0,0,0-2.926-.906,3.864,3.864,0,0,0-2.71,1.426Z"/><path class="cls-4" d="M684.851,1158.287a4,4,0,0,0,.488,5.636,4.232,4.232,0,0,0,2.918.922,3.871,3.871,0,0,0,2.719-1.41,4,4,0,0,0-.488-5.637,4.234,4.234,0,0,0-2.918-.922,3.872,3.872,0,0,0-2.719,1.411Z"/><path class="cls-4" d="M423.705,1326.788a3.833,3.833,0,0,0-2.637,1.465,4,4,0,0,0,.609,5.625c.3.18.59.36.887.539a4.039,4.039,0,0,0,2.1.317,3.833,3.833,0,0,0,2.636-1.465,4,4,0,0,0-.609-5.625c-.3-.18-.59-.36-.887-.539a4.024,4.024,0,0,0-1.626-.344,4.493,4.493,0,0,0-.475.027Z"/><path class="cls-4" d="M684.792,1478.5a3.83,3.83,0,0,0-2.637,1.465,4,4,0,0,0,.609,5.625c.3.179.59.359.887.539a4.039,4.039,0,0,0,2.1.316,3.83,3.83,0,0,0,2.636-1.465,4,4,0,0,0-.609-5.625l-.887-.539a4.023,4.023,0,0,0-1.626-.343,4.228,4.228,0,0,0-.475.027Z"/><path class="cls-4" d="M894.959,1355.093a3.832,3.832,0,0,0-2.637,1.464,4,4,0,0,0,.609,5.625l.887.54a4.039,4.039,0,0,0,2.1.316,3.83,3.83,0,0,0,2.636-1.465,4,4,0,0,0-.609-5.625l-.887-.539a4.023,4.023,0,0,0-1.626-.343,4.228,4.228,0,0,0-.475.027Z"/><path class="cls-5" d="M688.606,1000.4a4.252,4.252,0,0,0,2.66,7.371,4.4,4.4,0,0,0,3.106-1.121,4.252,4.252,0,0,0-2.66-7.371,4.4,4.4,0,0,0-3.106,1.121Z"/><path class="cls-5" d="M528.522,1112.308a4.252,4.252,0,0,0,2.66,7.371,4.406,4.406,0,0,0,3.106-1.121,4.252,4.252,0,0,0-2.66-7.371,4.4,4.4,0,0,0-3.106,1.121Z"/><path class="cls-5" d="M969.046,1197.831a4.252,4.252,0,0,0,2.66,7.371,4.408,4.408,0,0,0,3.106-1.121,4.252,4.252,0,0,0-2.661-7.371,4.4,4.4,0,0,0-3.1,1.121Z"/><path class="cls-5" d="M811.347,1366.107a4.252,4.252,0,0,0,2.66,7.371,4.4,4.4,0,0,0,3.105-1.121,4.251,4.251,0,0,0-2.66-7.371,4.4,4.4,0,0,0-3.105,1.121Z"/><path class="cls-5" d="M406.323,1012.59a4.252,4.252,0,0,0,2.66,7.371,4.4,4.4,0,0,0,3.106-1.121,4.252,4.252,0,0,0-2.66-7.371,4.4,4.4,0,0,0-3.106,1.121Z"/><path class="cls-5" d="M510.283,712.987a4.252,4.252,0,0,0,2.66,7.371,4.4,4.4,0,0,0,3.105-1.121,4.251,4.251,0,0,0-2.66-7.371,4.405,4.405,0,0,0-3.105,1.121Z"/><path class="cls-5" d="M888.451,779.281a4.252,4.252,0,0,0,2.66,7.371,4.405,4.405,0,0,0,3.106-1.121,4.252,4.252,0,0,0-2.661-7.371,4.4,4.4,0,0,0-3.105,1.121Z"/><path class="cls-5" d="M657.758,1362.6a4.252,4.252,0,0,0,2.66,7.371,4.4,4.4,0,0,0,3.106-1.121,4.252,4.252,0,0,0-2.66-7.371,4.408,4.408,0,0,0-3.106,1.121Z"/><path class="cls-5" d="M591.105,910.638a.316.316,0,0,0-.222.105,1.212,1.212,0,0,0-.138.229l-.211.406-.083.091a.406.406,0,0,0-.085.109l-.022.106-.007-.007a.25.25,0,0,0-.077.158.211.211,0,0,0-.106.147.2.2,0,0,0-.1.1.64.64,0,0,0-.079.134l-.2.208a1.163,1.163,0,0,1-.155.159l-.149.125a1.524,1.524,0,0,0-.19.143l-.144.091-.117.05-.094.043-.13.011-.125.027-.085,0c-.018,0-.02,0-.022,0h-.013a.3.3,0,0,0-.1.021l-.148-.012a.264.264,0,0,0-.224.146.253.253,0,0,0-.02.215l.068.083.007-.008.1.139.062.078.126.118.137.141a.7.7,0,0,0,.114.095l.117.085.074.078c.1.094.132.126.163.159l.078.094a2.436,2.436,0,0,1,.225.353l.05.117.043.1.079.176.086.2a1.853,1.853,0,0,1,.116.339l.008.181a1.121,1.121,0,0,1,0,.183l-.008.117a.261.261,0,0,0,.207.256h.017c.15,0,.245-.053.279-.139a1.062,1.062,0,0,0,.064-.221l.027-.117c.03-.073.062-.147.089-.225l.039-.11.14-.2c.085-.126.131-.194.179-.258a1.523,1.523,0,0,1,.105-.12l.087-.045a1.065,1.065,0,0,1,.243-.069l.124-.045v.01a2.627,2.627,0,0,1,.375.057l.19.044.144.031h.014c.174,0,.285-.077.311-.2a.269.269,0,0,0-.091-.265.193.193,0,0,0,.114-.137.251.251,0,0,0-.037-.2.334.334,0,0,0,.092-.23.276.276,0,0,0-.283-.259.266.266,0,0,0-.242.185l-.086-.081.008-.006-.067-.09a2.783,2.783,0,0,1-.187-.28,3.771,3.771,0,0,1-.245-.724l-.035-.18-.039-.153c-.011-.162-.019-.322-.015-.485a3.175,3.175,0,0,1,.132-.6l.039-.157a.22.22,0,0,0,0-.117.446.446,0,0,0-.008-.224.341.341,0,0,0-.165-.24.22.22,0,0,0-.126-.037Z"/><path class="cls-5" d="M591.008,911.123c-.013.05-.025.1-.033.146-.038.17-.074.34-.1.51a2.954,2.954,0,0,0-.047.406,1.34,1.34,0,0,0,.067.449,3.283,3.283,0,0,0,.2.473c.078.164.16.328.242.488.063.125.117.25.18.371.086.174.188.34.286.509a.468.468,0,0,0-.084,0,.9.9,0,0,0-.159.034,1.96,1.96,0,0,0-.2.094c-.136.074-.269.152-.4.238a1.815,1.815,0,0,0-.328.274,1.953,1.953,0,0,0-.227.281c.012-.02.024-.035.035-.055-.038.06-.08.117-.119.173l.012-.019c-.059.082-.114.167-.17.253-.016.024-.032.048-.047.072l-.033-.077a.238.238,0,0,0,.025-.12.228.228,0,0,0-.043-.122c-.04-.1-.069-.2-.109-.3a1.125,1.125,0,0,0-.148-.246,1.592,1.592,0,0,1-.146-.192,2.042,2.042,0,0,0-.147-.3,1.644,1.644,0,0,0-.3-.355c-.117-.106-.242-.195-.363-.289l-.054-.039-.064-.063-.047-.048.028-.01a.343.343,0,0,0,.183-.145.26.26,0,0,0-.054-.312c-.106-.106-.274-.075-.406-.075-.047,0-.094,0-.145,0a1.639,1.639,0,0,0-.2.011.441.441,0,0,0-.211.051.25.25,0,0,0-.09.1,1.582,1.582,0,0,0-.262.056.671.671,0,0,0-.207.09.281.281,0,0,0-.113.313.31.31,0,0,0,.211.195l.061.018a.72.72,0,0,1,.119.064l.07.047c.024.017.048.029.072.045s.055.047.084.068c.051.035.09.078.137.117s.117.086.179.129c.039.028.084.047.127.073a.47.47,0,0,1-.041-.03l.049.035.006,0-.006,0c.061.043.121.081.186.118s.146.069.215.113l.08.061,0,0,.006.006.048.034-.026-.018.078.057a1.422,1.422,0,0,1,.116.117c.042.044.086.084.128.129a3.3,3.3,0,0,1,.22.343c.083.141.185.265.262.4l-.008-.02.009.021.018.034a.227.227,0,0,1-.017-.031c.025.06.052.121.08.179a.348.348,0,0,1-.028-.054.633.633,0,0,1,.029.112,3.147,3.147,0,0,1,.022.321.554.554,0,0,0,.1.41.245.245,0,0,0,.246.055.272.272,0,0,0,.152-.129c.016-.019.028-.047.043-.066l0,0a.4.4,0,0,0,.059-.115c.01-.025.017-.051.025-.077a1.083,1.083,0,0,1,.08-.145c.036-.067.063-.133.094-.2a1.33,1.33,0,0,1,.1-.161c.039-.061.079-.121.118-.179l-.009.012c.025-.036.051-.072.075-.108s.06-.084.093-.127a1.611,1.611,0,0,1,.238-.25l-.011.008a3.282,3.282,0,0,1,.312-.211c.1-.058.205-.113.308-.165l.029-.008.021,0h.009a1.6,1.6,0,0,0,.325.01h.093a.435.435,0,0,0,.1,0,.973.973,0,0,0,.167-.035l.087-.014a.337.337,0,0,0,.14-.041.256.256,0,0,0,.118-.226.317.317,0,0,0-.121-.211.461.461,0,0,0-.1-.078c-.02-.01-.043-.023-.066-.037a1.2,1.2,0,0,1-.137-.147c-.039-.045-.081-.09-.123-.135-.084-.1-.168-.2-.248-.31a1.606,1.606,0,0,1-.173-.288c-.064-.144-.125-.288-.175-.439a4.732,4.732,0,0,1-.154-.522c-.028-.173-.05-.345-.065-.521a4.233,4.233,0,0,1,0-.478c.007-.06.017-.121.03-.181l.02-.087a.253.253,0,0,0-.191-.3.264.264,0,0,0-.055-.006.25.25,0,0,0-.242.194Zm.441.312v0Zm.4,2.046.007.017-.007-.017Zm-4.363.477.054.016a.226.226,0,0,1-.054-.016Zm4.738.059.014.016-.014-.016Zm-3.579.692.035.025-.035-.025Zm.039.028.016.011-.016-.011Zm.961,0,.013.023-.013-.023Zm.017.033.011.025-.011-.025Zm-.769.12.026.019a.248.248,0,0,1-.026-.019Zm2.866.069-.009,0h0l.01,0Zm-.012.007h0l-.022.01.022-.01Zm.038,0h0Zm-2.668.157.021.023-.021-.023Zm1.951.256-.012.009.012-.009Zm-.971.406c.006.012.012.024.017.036h0l-.016-.037Zm-.274.635v0l0,0-.007.006.01-.011Zm-.23-.555v0h0l0,0Zm1.116-.043.011-.016-.011.016Zm-.378-.327.01-.013-.01.013Zm1.434-.526h0l.011,0h-.009Zm-2.978-.157-.022-.016,0,0,.026.019Zm-.507-.311h0l-.008,0,.008,0Z"/><path class="cls-5" d="M591.011,913.459a.25.25,0,1,0,.238-.262.252.252,0,0,0-.238.262Z"/><path class="cls-5" d="M588.856,914.613a.228.228,0,0,0-.109.156.226.226,0,0,0,.031.188,4.859,4.859,0,0,1,.6.887l0-.006.013.026c.045.1.075.2.124.3l-.013-.031.013.031.014.027c0-.009-.01-.018-.014-.027.018.043.034.085.053.129l-.023-.059.055.128-.012-.022a1,1,0,0,1,.054.18.628.628,0,0,1,0,.1.39.39,0,0,0,.027.134v.016c-.007.049-.017.1-.027.147a.312.312,0,0,0,.036.219.27.27,0,0,0,.242.125.241.241,0,0,0,.187-.1.482.482,0,0,0,.09-.176c.039-.106.052-.221.084-.329l.057-.124a1.249,1.249,0,0,0,.049-.13c.018-.031.038-.059.057-.088.041-.052.086-.1.128-.153l.086-.086c.027-.024.05-.05.075-.074l.081-.066c-.015.011-.031.027-.047.039a1.586,1.586,0,0,1,.188-.121c.069-.035.136-.076.2-.112a1.123,1.123,0,0,0,.105-.049l-.021.009.183-.094a1.387,1.387,0,0,1,.158-.051c.045-.013.091-.027.138-.038l.053-.005c.036-.006.069-.017.1-.025l.041,0a.679.679,0,0,1,.075.011.482.482,0,0,0,.193-.006.371.371,0,0,1,.047,0,.359.359,0,0,0,.119.013.693.693,0,0,0,.112-.022h.024a.489.489,0,0,0,.118.015c.045-.006.089-.016.133-.026h0a.46.46,0,0,0,.116.014.284.284,0,0,0,.254-.218c.039-.274-.246-.371-.453-.45l.063.024c-.114-.051-.223-.109-.336-.16a.251.251,0,0,0-.192-.016.258.258,0,0,0-.148.121.263.263,0,0,0-.006.218c-.044-.007-.088-.012-.135-.015a.626.626,0,0,0-.194.032.546.546,0,0,0-.134.023l-.168.047a1.57,1.57,0,0,0-.375.164l-.03.014.01,0-.039.018.006,0a2.6,2.6,0,0,0-.524.309l.011-.01a2.9,2.9,0,0,0-.332.324,1.583,1.583,0,0,0-.129.167l-.011-.026.007.012c-.017-.04-.034-.079-.052-.118a1.383,1.383,0,0,1-.05-.132.831.831,0,0,0-.069-.159l.007.014-.009-.017,0,0,0-.005a4.567,4.567,0,0,0-.632-.946.274.274,0,0,0-.156-.113.281.281,0,0,0-.05,0,.257.257,0,0,0-.138.039Zm3.917.379h0Zm-.047.021,0,0,0,0Zm-1.631.21-.039.018.039-.018Zm1.453.078.016.006-.016-.006Zm.16.16.023,0-.023,0Zm-.534.031-.025,0,.025,0Zm-.708.094a.349.349,0,0,1-.039.019l.039-.019Zm-2.114.2.013.027-.013-.027Zm.683.34c.008.015.014.031.021.047l-.021-.047Zm-.259.67h0Zm-.035.029-.007.008,0-.006,0,0Zm-.227-.66Zm.32-.522Zm1.182-.383.02-.009-.02.009Z"/><path class="cls-5" d="M592.07,914.7a.25.25,0,1,0,.238-.261.251.251,0,0,0-.238.261Z"/><path class="cls-5" d="M592.1,914.6a.25.25,0,1,0,.238-.262.252.252,0,0,0-.238.262Z"/><path class="cls-5" d="M592.25,914.754a.254.254,0,0,0,.262.238.251.251,0,0,0,.238-.261.25.25,0,1,0-.5.023Z"/><path class="cls-5" d="M592.306,914.742a.25.25,0,1,0,.238-.262.252.252,0,0,0-.238.262Z"/><path class="cls-5" d="M807.826,967.262c-.035.111-.067.223-.106.334l.008-.022-.011.029-.012.034.009-.026a.965.965,0,0,1-.04.088h0a.25.25,0,0,0,.363.344.754.754,0,0,0,.1-.145c.023-.047.039-.1.058-.148q.064-.187.117-.375a.249.249,0,0,0-.183-.3.293.293,0,0,0-.058-.006.256.256,0,0,0-.243.194Zm-.112.349,0-.008,0-.007-.006.015Z"/><path class="cls-5" d="M808.049,966.976a.251.251,0,0,0-.239.257c0,.092-.007.181-.014.27-.01.049-.021.1-.034.143a2.4,2.4,0,0,1-.214.358h0l-.038.054a.4.4,0,0,1,.022-.034,2,2,0,0,1-.194.225.248.248,0,0,0,.008.352.256.256,0,0,0,.355-.008,2.735,2.735,0,0,0,.426-.563,1.368,1.368,0,0,0,.14-.328,1.059,1.059,0,0,0,.028-.226c.008-.086.011-.172.011-.262a.248.248,0,0,0-.251-.239Zm-.517,1.048.016-.02h0l-.016.02Z"/><path class="cls-5" d="M807.836,967.159c-.039.133-.078.27-.125.4.008-.02.016-.04.027-.063a3.03,3.03,0,0,1-.287.565,3.229,3.229,0,0,1-.4.418c-.036.028-.075.055-.113.084a.249.249,0,1,0,.261.425,2.789,2.789,0,0,0,.731-.75,2.526,2.526,0,0,0,.14-.261,2.158,2.158,0,0,0,.106-.239c.058-.152.1-.308.144-.465a.245.245,0,0,0-.183-.3.211.211,0,0,0-.06-.008.255.255,0,0,0-.241.191Zm-.352.859-.026.034a.385.385,0,0,1,.026-.034Z"/><path class="cls-5" d="M807.766,967.328l-.072.215a2.734,2.734,0,0,1-.178.344,3.788,3.788,0,0,1-.512.539.452.452,0,0,1,.051-.039,5.622,5.622,0,0,1-.664.457.247.247,0,0,0-.082.344.252.252,0,0,0,.343.082c.133-.074.258-.16.383-.246a4.025,4.025,0,0,0,.535-.442,2.684,2.684,0,0,0,.461-.589,2.813,2.813,0,0,0,.219-.551.252.252,0,0,0-.188-.3.248.248,0,0,0-.054-.006.259.259,0,0,0-.242.193Z"/><path class="cls-5" d="M806.129,968.984a.249.249,0,0,0-.113.157.242.242,0,0,0,.031.187.24.24,0,0,0,.156.113,2.685,2.685,0,0,1,.492.079,1.8,1.8,0,0,1,.243.136c.037.028.072.055.109.086a.251.251,0,0,0,.352-.008.256.256,0,0,0-.008-.355,1.919,1.919,0,0,0-.41-.277,1.217,1.217,0,0,0-.27-.094,3.426,3.426,0,0,0-.394-.055c-.022,0-.043,0-.062,0a.215.215,0,0,0-.126.035Z"/><path class="cls-5" d="M806.264,969.19a.253.253,0,0,0,.187.3c.135.031.269.056.4.1a1.89,1.89,0,0,1,.253.142,2.776,2.776,0,0,1,.337.293,2.472,2.472,0,0,1,.165.243.249.249,0,1,0,.425-.261,1.512,1.512,0,0,0-.172-.254,1.692,1.692,0,0,0-.25-.258,1.771,1.771,0,0,0-1.043-.488.222.222,0,0,0-.057-.007.25.25,0,0,0-.243.19Zm1.144.8.01.013-.01-.013Z"/><path class="cls-5" d="M807,969.268a.249.249,0,0,0,.012.352c.078.07.156.14.234.215a2.376,2.376,0,0,1,.236.255,1.676,1.676,0,0,1,.166.251c.019.057.031.113.044.169a.251.251,0,0,0,.48-.148c-.008-.031-.015-.066-.023-.1a1.147,1.147,0,0,0-.094-.222,1.13,1.13,0,0,0-.156-.227,2.874,2.874,0,0,0-.27-.305c-.09-.086-.18-.167-.273-.253a.262.262,0,0,0-.174-.067.253.253,0,0,0-.182.078Zm.446.774.034.044c-.013-.016-.024-.03-.034-.044Z"/><path class="cls-5" d="M809.121,968.819a1.406,1.406,0,0,0-.633.441,2.97,2.97,0,0,0-.371.512,3.2,3.2,0,0,0-.207.4,3.55,3.55,0,0,0-.137.4.249.249,0,0,0,.188.3.243.243,0,0,0,.187-.032.271.271,0,0,0,.113-.152c.031-.1.062-.2.1-.3a1.839,1.839,0,0,1,.084-.173c.027-.054.059-.105.086-.16.051-.088.11-.173.168-.257a3.02,3.02,0,0,1,.355-.384.876.876,0,0,1,.149-.093.515.515,0,0,1,.07-.02.253.253,0,0,0,.164-.312.249.249,0,0,0-.245-.176.307.307,0,0,0-.067.008Zm-.031.558a.4.4,0,0,1-.032.028l.032-.028Zm-.368.379-.011.017.011-.017Z"/><path class="cls-5" d="M808.07,970.015a.25.25,0,1,0,.243-.258.255.255,0,0,0-.243.258Z"/><path class="cls-5" d="M808.1,967.05a.252.252,0,0,0-.242.258v.176a.856.856,0,0,0,.027.223.755.755,0,0,0,.047.187,1.4,1.4,0,0,0,.121.246.81.81,0,0,0,.09.137,1.827,1.827,0,0,0,.445.406.25.25,0,0,0,.34-.1.252.252,0,0,0,.019-.192.257.257,0,0,0-.121-.144l-.009-.009.013.009a1.884,1.884,0,0,1-.266-.237,1.525,1.525,0,0,1-.132-.216l.023.058a1.249,1.249,0,0,1-.082-.226l.012.062a.843.843,0,0,1-.027-.222v-.176a.251.251,0,0,0-.251-.239Zm.426.915.018.021-.018-.021Z"/><path class="cls-5" d="M808.284,968.194a.251.251,0,0,0,.008.351,1.8,1.8,0,0,0,.528.418.249.249,0,0,0,.238-.437,1,1,0,0,1-.157-.094,2.841,2.841,0,0,1-.265-.25.228.228,0,0,0-.166-.068.256.256,0,0,0-.186.08Zm.633.251.024.018-.024-.018Z"/><path class="cls-5" d="M807.929,968.056a.256.256,0,0,0-.144.118.351.351,0,0,0-.04.1.253.253,0,0,0-.241.055.807.807,0,0,0-.134.11c-.058.051-.113.109-.167.164s-.125.121-.184.188a.442.442,0,0,0-.149.293.251.251,0,0,0,.325.23.276.276,0,0,0,.047-.02.287.287,0,0,0,.146-.022l.01.014a.308.308,0,0,0,.144.306.37.37,0,0,0,.052.02.331.331,0,0,0,.042.116.274.274,0,0,0,.3.116l0,0c-.014.027-.028.054-.041.081a.25.25,0,1,0,.437.243,3.29,3.29,0,0,1,.277-.466,1.5,1.5,0,0,1,.216-.242,1.784,1.784,0,0,1,.247-.157c.045-.017.092-.033.139-.047a.245.245,0,0,0,.156-.077.25.25,0,0,0,.067-.179c0-.01,0-.021,0-.031l0-.008a.244.244,0,0,0-.031-.188.262.262,0,0,0-.05-.058c-.029-.029-.058-.057-.083-.086a1.58,1.58,0,0,0-.212-.183,1.206,1.206,0,0,0-.108-.091.251.251,0,0,0-.2-.017.336.336,0,0,0-.254-.034.291.291,0,0,0-.112.06.271.271,0,0,0-.024-.052.251.251,0,0,0-.119-.1.232.232,0,0,0-.12-.145.251.251,0,0,0-.12-.03.244.244,0,0,0-.071.01Zm.667.785.006,0,.008.006-.014-.009Zm-1.6.028-.027.023.027-.023Zm1.644,0,.05.04.018.03c-.028.017-.056.035-.082.054a.281.281,0,0,0,0-.071l.014-.053Zm.156.618-.014.011.014-.011Zm-.176.207,0,0,0,0Z"/><path class="cls-5" d="M808.79,968.5a.227.227,0,0,0-.171.078,6.2,6.2,0,0,0-.422.6,3.111,3.111,0,0,0-.192.488.251.251,0,0,0,.188.3.242.242,0,0,0,.187-.032.256.256,0,0,0,.114-.156c.016-.051.034-.1.052-.153a1.648,1.648,0,0,1,.1-.23,1.749,1.749,0,0,1,.148-.222l-.01.011c.064-.088.129-.176.194-.261a.251.251,0,0,0-.008-.356.24.24,0,0,0-.169-.067Z"/><path class="cls-5" d="M644.063,1229.02a12.908,12.908,0,0,1-.683,1.316.249.249,0,1,0,.437.238,13.517,13.517,0,0,0,.688-1.312.249.249,0,0,0-.223-.369.239.239,0,0,0-.219.127Z"/><path class="cls-5" d="M644.226,1229c-.2.35-.389.7-.618,1.038a2.522,2.522,0,0,1-.261.286.252.252,0,0,0,.364.348,3.471,3.471,0,0,0,.3-.336c.075-.1.137-.2.2-.3.16-.262.3-.531.457-.8a.257.257,0,0,0-.1-.34.239.239,0,0,0-.115-.029.265.265,0,0,0-.225.131Z"/><path class="cls-5" d="M644.99,1228.61a.255.255,0,0,0-.148.121c-.043.117-.09.238-.137.356-.02.047-.039.1-.059.144a2.638,2.638,0,0,1-.218.41c-.059.1-.129.2-.2.293s-.125.176-.189.262a7.973,7.973,0,0,1-.736.84.256.256,0,0,0-.11.152.277.277,0,0,0,.027.192.27.27,0,0,0,.157.109.236.236,0,0,0,.191-.031,3.463,3.463,0,0,0,.449-.449c.141-.161.274-.329.407-.5.152-.195.285-.4.425-.609a4.761,4.761,0,0,0,.43-.934.293.293,0,0,0,.02-.191.254.254,0,0,0-.242-.179.245.245,0,0,0-.071.011Z"/><path class="cls-5" d="M644.728,1228.344c-.1.187-.2.379-.3.566s-.215.371-.328.559c-.09.148-.187.293-.281.441q-.173.252-.35.5l.006-.008-.008.011-.031.044.017-.026a5.2,5.2,0,0,1-.517.6l-.027.02a.265.265,0,0,0-.11.156.242.242,0,0,0,.032.187.245.245,0,0,0,.152.114.251.251,0,0,0,.191-.032,2.063,2.063,0,0,0,.309-.289c.1-.109.187-.222.277-.339.18-.239.348-.481.512-.727s.313-.488.461-.738.3-.535.441-.8a.255.255,0,0,0-.1-.34.248.248,0,0,0-.116-.028.255.255,0,0,0-.224.13Zm-1.28,2.091.014-.018,0,0-.016.021Z"/><path class="cls-5" d="M644.844,1228.338c-.051.1-.1.191-.149.289-.035.058-.066.121-.1.18-.1.161-.2.315-.308.473a7.006,7.006,0,0,1-.98,1.07.892.892,0,0,1-.134.085.248.248,0,0,0-.082.344.251.251,0,0,0,.156.113.276.276,0,0,0,.187-.031,1.12,1.12,0,0,0,.258-.187,2.758,2.758,0,0,0,.242-.227c.172-.168.328-.348.485-.531a7.3,7.3,0,0,0,.441-.594,5.8,5.8,0,0,0,.422-.746.249.249,0,0,0-.1-.336.25.25,0,0,0-.339.1Zm-.569.958-.01.014.01-.014Zm-.931,1.026-.029.022a.169.169,0,0,1,.029-.022Z"/><path class="cls-5" d="M642.924,1231.26a.254.254,0,0,0,.188.3c.269.064.538.121.8.208.025.01.048.019.074.031a1.641,1.641,0,0,1,.254.152l.054.039h0l.05.039-.021-.015c.087.07.171.141.252.218.053.057.1.113.154.172a1.836,1.836,0,0,1,.213.3.251.251,0,0,0,.425-.266,2.417,2.417,0,0,0-.218-.305,2.949,2.949,0,0,0-.418-.433c-.082-.067-.168-.129-.254-.192a1.821,1.821,0,0,0-.352-.191c-.058-.023-.117-.043-.175-.062a2.637,2.637,0,0,0-.313-.086c-.137-.032-.273-.067-.41-.1a.267.267,0,0,0-.056-.006.254.254,0,0,0-.245.193Zm1.4.755-.029-.024h0a.225.225,0,0,0,.03.024Z"/><path class="cls-5" d="M643.218,1231.5a.251.251,0,0,0,.184.3l.354.116.052.024a.943.943,0,0,1,.184.118l-.051-.036a4.131,4.131,0,0,1,.578.567h0a4.585,4.585,0,0,1,.442.652.25.25,0,0,0,.425-.265,5.3,5.3,0,0,0-.617-.86,3.544,3.544,0,0,0-.484-.457,1.633,1.633,0,0,0-.239-.16,1.585,1.585,0,0,0-.2-.078c-.109-.039-.223-.07-.332-.106a.217.217,0,0,0-.062-.01.257.257,0,0,0-.239.194Zm1.322,1.115.022.026a.275.275,0,0,1-.022-.026Z"/><path class="cls-5" d="M643.02,1231.3a.252.252,0,0,0,.183.3c.161.035.321.066.477.1.109.028.216.058.324.094a2.858,2.858,0,0,1,.5.257,2.039,2.039,0,0,1,.256.244,3.082,3.082,0,0,1,.188.3c.054.1.105.219.164.328a.251.251,0,0,0,.343.082.261.261,0,0,0,.083-.348c-.079-.144-.149-.3-.231-.441a1.7,1.7,0,0,0-.168-.238,1.81,1.81,0,0,0-.3-.3,2.555,2.555,0,0,0-.8-.4c-.09-.031-.184-.05-.274-.074-.144-.039-.293-.066-.437-.1a.264.264,0,0,0-.055-.006.248.248,0,0,0-.246.193Z"/><path class="cls-5" d="M646.406,1231.278a1.665,1.665,0,0,0-.77.539,3.967,3.967,0,0,0-.367.551c-.043.078-.082.156-.121.234-.07.141-.141.277-.211.418a.249.249,0,1,0,.437.238c.106-.207.211-.414.321-.621a3.413,3.413,0,0,1,.267-.432,2.9,2.9,0,0,1,.225-.244.346.346,0,0,1-.051.039,2.1,2.1,0,0,1,.309-.206c-.015.008-.029.013-.043.019l.046-.02.012-.007-.012.006c.034-.014.067-.027.1-.038a.249.249,0,0,0-.071-.488.233.233,0,0,0-.073.012Zm-.41.879a.448.448,0,0,1-.032.044l.032-.044Zm.452-.364h0l0,0Z"/><path class="cls-5" d="M646.692,1230.89a5.552,5.552,0,0,0-.434.379,7.241,7.241,0,0,0-.578.66.26.26,0,0,0,.008.356.256.256,0,0,0,.355-.012c.157-.195.313-.391.489-.57.115-.119.237-.231.36-.337.02-.017.04-.034.062-.05a.293.293,0,0,0,.113-.156.263.263,0,0,0-.031-.188.259.259,0,0,0-.157-.113.284.284,0,0,0-.06-.006.2.2,0,0,0-.127.037Z"/><path class="cls-5" d="M645.314,1228.24a.251.251,0,0,0-.172.078.264.264,0,0,0-.071.184,1.876,1.876,0,0,0,.008.41,1.31,1.31,0,0,0,.063.269,2.024,2.024,0,0,0,.09.211,3.7,3.7,0,0,0,.312.531c.082.118.168.235.258.348a2.359,2.359,0,0,0,.207.231,3.412,3.412,0,0,0,.324.246.26.26,0,0,0,.2.019.242.242,0,0,0,.145-.121.25.25,0,0,0,.019-.191.258.258,0,0,0-.117-.149c-.031-.019-.062-.043-.09-.062l.01.008c-.047-.037-.093-.074-.138-.114a1.331,1.331,0,0,1-.167-.178c-.075-.1-.149-.2-.22-.3a4.025,4.025,0,0,1-.306-.518c-.014-.038-.029-.075-.046-.111a1.206,1.206,0,0,1-.062-.27l.011.067c0-.117,0-.235,0-.348a.251.251,0,0,0-.251-.242Zm.889,1.738.021.027-.021-.027Z"/><path class="cls-5" d="M645.631,1229.725a.246.246,0,0,0-.238.258.257.257,0,0,0,.078.171c.133.161.266.321.414.473a1.056,1.056,0,0,0,.125.1,1.748,1.748,0,0,0,.2.129,2.107,2.107,0,0,0,.274.121.251.251,0,0,0,.191.019.244.244,0,0,0,.148-.117.259.259,0,0,0,.02-.195.252.252,0,0,0-.121-.145,2.286,2.286,0,0,1-.43-.218,4.537,4.537,0,0,1-.48-.528.244.244,0,0,0-.17-.067Zm.617.562.016.011-.016-.011Z"/><path class="cls-5" d="M644.666,1228.391q-.32.5-.656.988l.012-.015-.019.026-.02.028.009-.013a4.658,4.658,0,0,1-.673.775.253.253,0,0,0,.012.356.232.232,0,0,0,.179.066.255.255,0,0,0,.172-.074,3.983,3.983,0,0,0,.41-.442c.114-.136.227-.281.328-.429.239-.336.465-.68.684-1.028a.245.245,0,0,0-.1-.336.241.241,0,0,0-.117-.031.275.275,0,0,0-.223.129Zm-.674,1.014.011-.015.007-.011-.018.026Z"/><path class="cls-5" d="M644.634,1228.329c-.188.243-.375.489-.551.739-.163.229-.315.466-.482.692a6.765,6.765,0,0,1-.487.569c-.056.062-.115.122-.175.182a.2.2,0,0,0-.1.065,1.761,1.761,0,0,0-.145.195.25.25,0,0,0,.051.3.256.256,0,0,0,.352-.008c.031-.028.058-.063.085-.09.055-.059.114-.117.172-.172.16-.164.309-.336.457-.508.293-.351.536-.742.8-1.113a.346.346,0,0,1-.039.051c.141-.188.281-.371.426-.559a.258.258,0,0,0,.07-.179.251.251,0,0,0-.078-.172.273.273,0,0,0-.183-.068.217.217,0,0,0-.172.075Zm-1.5,2.684a.148.148,0,0,1-.025.031l.025-.031Z"/><path class="cls-5" d="M644.412,1228.6a12.94,12.94,0,0,1-.759,1.283c-.161.216-.328.421-.507.619a2.064,2.064,0,0,1-.191.183c-.043.04-.086.082-.131.122a.369.369,0,0,0-.131.179.267.267,0,0,0,.07.258.35.35,0,0,0,.129.074c.043.012.082.02.125.028a2.967,2.967,0,0,1,.308.081c.093.04.183.085.27.133.118.067.227.141.344.2a.256.256,0,0,0,.34-.1.252.252,0,0,0-.1-.34c-.179-.09-.343-.207-.527-.293a1.548,1.548,0,0,0-.228-.091,5.959,5.959,0,0,0,.458-.522,10.8,10.8,0,0,0,.973-1.57.253.253,0,0,0-.1-.34.235.235,0,0,0-.117-.03.256.256,0,0,0-.223.128Zm-1.6,2.217-.015.013.015-.013Zm.311.385v0a.186.186,0,0,1-.032.023.291.291,0,0,0,.033-.026Z"/><path class="cls-5" d="M644.633,1228.919c-.168.383-.336.766-.519,1.145-.074.16-.153.316-.235.472-.031.059-.062.118-.1.176a.5.5,0,0,0-.078.164.248.248,0,0,0,.421.231l.02-.02c.059-.078.121-.156.184-.23a.281.281,0,0,0,.062-.222c.057-.11.111-.221.164-.333.18-.379.352-.762.52-1.144a.272.272,0,0,0,.019-.192.25.25,0,0,0-.121-.148.24.24,0,0,0-.116-.028.244.244,0,0,0-.224.129Z"/><path class="cls-5" d="M644.867,1229.066c-.235.438-.473.875-.692,1.324-.047.094-.1.192-.14.286a.632.632,0,0,0-.094.324.27.27,0,0,0,.2.242c.152.035.273-.074.379-.164a.251.251,0,0,0,.023-.317c.022-.044.044-.088.067-.132l.183-.371c.168-.321.34-.637.512-.954a.254.254,0,0,0-.1-.339.237.237,0,0,0-.115-.029.253.253,0,0,0-.224.13Z"/><path class="cls-5" d="M645.089,1229.31c-.211.34-.429.676-.621,1.023-.082.145-.16.29-.234.438s-.16.3-.063.441a.264.264,0,0,0,.289.11.618.618,0,0,0,.239-.172,2.581,2.581,0,0,0,.238-.313.219.219,0,0,0,.019-.191.255.255,0,0,0-.044-.085l.056-.1c.18-.308.371-.609.559-.914a.252.252,0,0,0-.1-.34.239.239,0,0,0-.114-.029.264.264,0,0,0-.222.127Z"/><path class="cls-5" d="M645.107,1229.687a.271.271,0,0,0-.145.117c-.113.166-.227.331-.336.5-.018.012-.034.025-.051.038a1.531,1.531,0,0,0-.125.1,1.916,1.916,0,0,0-.191.2c-.055.063-.106.117-.156.18a1.2,1.2,0,0,0-.176.254.713.713,0,0,0-.133.355.335.335,0,0,0,.313.305,2.467,2.467,0,0,0,.343.02c.128,0,.253.007.38.017h0l-.04,0,.04,0a.682.682,0,0,0,.011.133.278.278,0,0,0,.141.195.218.218,0,0,0,.148.028.275.275,0,0,0,.078.164.254.254,0,0,0,.305.031c.02-.016.039-.033.057-.05l0,0,.006-.007a.919.919,0,0,0,.064-.076c.041-.045.086-.086.13-.128.093-.09.195-.168.285-.254a1.266,1.266,0,0,0,.2-.254c.023-.039.039-.082.062-.121a1.151,1.151,0,0,1,.06-.11.709.709,0,0,0,.105-.132.293.293,0,0,0-.047-.332.5.5,0,0,0-.219-.106c-.078-.021-.152-.039-.226-.062a1,1,0,0,1-.175-.1.926.926,0,0,1-.1-.1.277.277,0,0,1-.022-.037c-.04-.093-.067-.192-.113-.284a.2.2,0,0,0-.107-.1.251.251,0,0,0-.073-.031h0l0-.007a.227.227,0,0,0,.02-.2.245.245,0,0,0-.239-.174.262.262,0,0,0-.073.01Zm1.018,1.567,0,0h0l0,0Zm.245.086c-.008.01-.016.021-.025.031a.376.376,0,0,1,.025-.031Z"/><path class="cls-5" d="M645.121,1227.737c-.1.023-.156.117-.211.195s-.086.129-.129.195c-.12.168-.23.339-.345.509l0,0a.25.25,0,0,0,.278.414.548.548,0,0,0,.14-.14c.028-.043.055-.086.082-.125s.046-.072.07-.107c.009.032.02.063.032.1.031.09.055.183.086.273l.006.02c.046.3.088.59.15.883a2.515,2.515,0,0,0,.2.574,2.583,2.583,0,0,0,.3.465c.051.07.106.133.16.2a.431.431,0,0,0,.141.125.258.258,0,0,0,.25-.008.232.232,0,0,0,.117-.219.438.438,0,0,0-.043-.144.916.916,0,0,0-.051-.082c-.035-.063-.074-.121-.113-.184a4.32,4.32,0,0,1-.259-.421,3.207,3.207,0,0,1-.175-.508c-.039-.184-.078-.372-.128-.555-.036-.141-.079-.281-.122-.422a3.032,3.032,0,0,1-.1-.323c-.009-.053-.02-.106-.031-.159a.759.759,0,0,1,0-.142.869.869,0,0,0,.022-.181.237.237,0,0,0-.078-.172.235.235,0,0,0-.169-.067.3.3,0,0,0-.073.009Zm-.661.883,0,0,0,0Zm-.04.039-.01.015.01-.015Zm1.549,1.57c0,.009.01.019.014.028l-.014-.028Zm.014.028.013.031-.013-.031Z"/><path class="cls-5" d="M645.276,1227.828a.255.255,0,0,0-.242.261c.035.344.074.692.125,1.036a1.723,1.723,0,0,0,.274.738c.074.105.156.2.238.3s.14.183.219.269c.058.067.121.125.183.184a.887.887,0,0,0,.106.094c.054.046.117.078.175.121l-.05-.039a.406.406,0,0,1,.086.074.251.251,0,0,0,.347-.363,1.458,1.458,0,0,0-.238-.175c-.053-.044-.1-.1-.156-.146-.067-.066-.129-.133-.188-.2l0,0c-.066-.086-.132-.171-.2-.254a1.873,1.873,0,0,1-.2-.306,1.713,1.713,0,0,1-.066-.178c-.019-.067-.031-.137-.043-.2l.012.062c-.051-.344-.09-.691-.125-1.035a.254.254,0,0,0-.25-.242Zm.9,2.175.021.028-.021-.028Z"/><path class="cls-5" d="M642.907,1230.62c-.114.059-.231.114-.34.176a.468.468,0,0,0-.2.168.242.242,0,0,0,.007.25.258.258,0,0,0,.223.121.508.508,0,0,0,.135-.022,1.343,1.343,0,0,1,.509.057.593.593,0,0,1,.1.05c.044.033.088.063.134.091.027.015.051.027.078.039s.074.035.11.055a.254.254,0,0,0,.339-.1.251.251,0,0,0-.1-.34,1.5,1.5,0,0,1-.278-.152l.051.039a1.427,1.427,0,0,0-.152-.106c-.047-.023-.1-.039-.145-.058a.62.62,0,0,0-.087-.024.26.26,0,0,0-.034-.16.247.247,0,0,0-.156-.113.237.237,0,0,0-.052-.006.279.279,0,0,0-.135.037Zm.007.688.026,0-.026,0Z"/><path class="cls-5" d="M642.544,1230.874a.25.25,0,0,0,.1.34c.336.156.672.3,1,.468.066.035.133.078.2.117s.113.062.168.1c.034.025.068.05.1.072-.02-.011-.035-.023-.055-.035a2.211,2.211,0,0,1,.2.188c.049.045.1.091.138.139s.058.078.089.115a.792.792,0,0,0,.105.093.259.259,0,0,0,.18.067.253.253,0,0,0,.172-.078.248.248,0,0,0-.008-.352.784.784,0,0,1-.1-.1,2.027,2.027,0,0,0-.216-.24,1.467,1.467,0,0,0-.114-.109,1.106,1.106,0,0,0-.146-.128l.01.007a1.072,1.072,0,0,0-.137-.1c-.031-.019-.063-.031-.094-.051-.066-.035-.133-.082-.2-.121-.125-.07-.266-.133-.4-.195-.215-.1-.43-.2-.649-.3a.279.279,0,0,0-.122-.028.236.236,0,0,0-.214.126Zm1.426.992.038.028-.038-.028Zm.04.03.015.009-.015-.009Z"/><path class="cls-5" d="M642.849,1231.019a.254.254,0,0,0,.1.34,5.06,5.06,0,0,1,.76.375,1.567,1.567,0,0,1,.152.153l.1.124-.009-.015.027.035.012.016-.006-.006a3.811,3.811,0,0,1,.24.377c.073.12.149.24.21.367a4.1,4.1,0,0,0,.271.527.248.248,0,1,0,.422-.261,4.075,4.075,0,0,1-.235-.461l.024.058a2.6,2.6,0,0,0-.137-.281l-.141-.234a3.162,3.162,0,0,0-.367-.524.426.426,0,0,1,.039.051,2.334,2.334,0,0,0-.175-.211,1.279,1.279,0,0,0-.207-.168,2.124,2.124,0,0,0-.274-.148c-.152-.075-.308-.141-.465-.215a.3.3,0,0,0-.121-.026.242.242,0,0,0-.219.127Zm.977.828.015.018-.015-.018Zm.594.907.009.021-.009-.021Zm-.436-.713-.006-.01-.018-.02c.008.01.015.02.024.03Z"/><path class="cls-5" d="M644.606,1232.08a.252.252,0,0,0-.164.312,4.753,4.753,0,0,1,.321.934c0-.02-.008-.039-.012-.063.008.047.012.1.016.145a.253.253,0,0,0,.257.242.259.259,0,0,0,.243-.262,3.7,3.7,0,0,0-.348-1.14.284.284,0,0,0-.117-.149.263.263,0,0,0-.123-.03.253.253,0,0,0-.073.011Z"/><path class="cls-5" d="M646.111,1231.162a2.046,2.046,0,0,0-.367.371,4.409,4.409,0,0,0-.387.554,4.516,4.516,0,0,0-.3.7c-.051.136-.09.281-.133.421s-.082.282-.129.422a.251.251,0,0,0,.488.114c.094-.306.178-.615.289-.917a4.154,4.154,0,0,1,.184-.415,2.857,2.857,0,0,1,.21-.345,3.319,3.319,0,0,1,.407-.476l0,0a.275.275,0,0,0,.113-.156.251.251,0,0,0-.031-.191.269.269,0,0,0-.22-.118.2.2,0,0,0-.124.04Zm-.113.855a.248.248,0,0,1-.019.026l.019-.026Z"/><path class="cls-5" d="M646.741,1230.817a.244.244,0,0,0-.172.078l0,0-.173.122a2.96,2.96,0,0,0-.269.222,4.685,4.685,0,0,0-.688.918.255.255,0,0,0,.1.34.263.263,0,0,0,.2.02.249.249,0,0,0,.145-.121c.109-.168.219-.336.331-.5l-.015.019.016-.02.023-.035a.4.4,0,0,1-.022.034,2.332,2.332,0,0,1,.229-.264,2.15,2.15,0,0,1,.183-.161l-.022.02c.113-.086.23-.16.335-.254a.255.255,0,0,0-.007-.355.273.273,0,0,0-.171-.067Zm-.186.091-.013.01.013-.01Zm-.349.99h0l0,0Z"/><path class="cls-5" d="M645.283,1228.012a.255.255,0,0,0-.164.313c.051.156.1.316.156.477a1.583,1.583,0,0,0,.141.312c.086.148.183.293.277.438a2.715,2.715,0,0,0,.371.421c.055.059.113.11.164.168a1.608,1.608,0,0,0,.211.184l-.009-.008c.069.051.141.1.216.145s.16.1.242.144a1.455,1.455,0,0,0,.232.1,7.578,7.578,0,0,0-.708.564.251.251,0,0,0,.363.348c.055-.051.106-.1.16-.145l0,0c.152-.119.308-.233.46-.35.106-.082.207-.164.313-.25a.357.357,0,0,0,.16-.293.287.287,0,0,0-.149-.227.839.839,0,0,0-.171-.05,2.9,2.9,0,0,1-.3-.084,1.775,1.775,0,0,1-.25-.127c-.1-.059-.192-.118-.281-.184l.023.02-.057-.042c-.087-.075-.16-.164-.24-.244s-.188-.185-.274-.284c-.061-.084-.116-.173-.171-.259-.068-.11-.138-.217-.2-.329-.077-.192-.134-.394-.2-.592a.253.253,0,0,0-.238-.176.242.242,0,0,0-.074.011Zm.889,1.356a.2.2,0,0,1,.017.023l-.017-.023Zm.494.508.011.007-.011-.007Zm.014.01a.12.12,0,0,1,.021.017l-.021-.017Zm.067.048.016.012-.016-.012Z"/><path class="cls-5" d="M646.445,1230.392a.25.25,0,1,0,.242-.258.255.255,0,0,0-.242.258Z"/><path class="cls-5" d="M646.653,1230.688a.25.25,0,1,0,.243-.258.254.254,0,0,0-.243.258Z"/><path class="cls-5" d="M646.688,1230.759a.25.25,0,1,0,.242-.257.255.255,0,0,0-.242.257Z"/><path class="cls-5" d="M642.265,1230.961a.251.251,0,0,0,.2.454h.012a1.345,1.345,0,0,1,.14.031.228.228,0,0,0,.179.17c.2.035.408.06.607.105.057.029.114.059.17.091.087.05.177.1.262.151a1.454,1.454,0,0,1,.152.152,4.751,4.751,0,0,1,.478.775v0l0,.005.025.053-.014-.026a3.417,3.417,0,0,1,.133.362l0,.016a.391.391,0,0,0,.055.172.246.246,0,0,0,.453-.074.448.448,0,0,0-.014-.2c0-.053,0-.107,0-.16a1.341,1.341,0,0,0-.035-.209,1.673,1.673,0,0,0-.18-.576c-.039-.07-.078-.145-.125-.215a2.106,2.106,0,0,0-.2-.246,1.878,1.878,0,0,0-.563-.394,2.356,2.356,0,0,0-.426-.153l-.009,0c-.056-.025-.113-.05-.17-.072-.188-.074-.375-.129-.567-.184-.062-.015-.129-.035-.2-.05a.75.75,0,0,0-.184-.025.312.312,0,0,0-.183.048Zm.269.422h0Zm-.054.025h0Zm1.373.565.029.019-.029-.019Zm.628.946-.011-.027h0l.012.028Z"/><path class="cls-2" d="M192.78,113.771a5.5,5.5,0,0,0,.606,7.754,5.782,5.782,0,0,0,4,1.3,5.339,5.339,0,0,0,3.75-1.91,5.494,5.494,0,0,0-.606-7.754,5.782,5.782,0,0,0-4-1.3,5.339,5.339,0,0,0-3.75,1.91Z"/><path class="cls-2" d="M852.117,260.994a5.5,5.5,0,0,0,.605,7.754,5.782,5.782,0,0,0,4,1.305,5.339,5.339,0,0,0,3.75-1.91,5.5,5.5,0,0,0-.605-7.754,5.784,5.784,0,0,0-4-1.305,5.335,5.335,0,0,0-3.75,1.91Z"/><path class="cls-2" d="M422.4,441.753a5.5,5.5,0,0,0,.605,7.754,5.786,5.786,0,0,0,4,1.3,5.337,5.337,0,0,0,3.75-1.91,5.5,5.5,0,0,0-.605-7.754,5.789,5.789,0,0,0-4-1.305,5.334,5.334,0,0,0-3.75,1.911Z"/><path class="cls-2" d="M1282.736,1372.431a5.5,5.5,0,0,0,.6,7.754,5.782,5.782,0,0,0,4,1.305,5.334,5.334,0,0,0,3.75-1.911,5.5,5.5,0,0,0-.605-7.754,5.786,5.786,0,0,0-4-1.3,5.337,5.337,0,0,0-3.75,1.91Z"/><path class="cls-2" d="M1193.391,1747.887a5.5,5.5,0,0,0,.605,7.754,5.79,5.79,0,0,0,4,1.3,5.335,5.335,0,0,0,3.75-1.91,5.5,5.5,0,0,0-.605-7.754,5.782,5.782,0,0,0-4-1.3,5.339,5.339,0,0,0-3.75,1.91Z"/><path class="cls-2" d="M845.288,1874.982a5.494,5.494,0,0,0,.606,7.754,5.779,5.779,0,0,0,4,1.3,5.335,5.335,0,0,0,3.75-1.91,5.5,5.5,0,0,0-.605-7.754,5.788,5.788,0,0,0-4-1.3,5.335,5.335,0,0,0-3.75,1.91Z"/><path class="cls-2" d="M483.947,1768.978a5.5,5.5,0,0,0,.606,7.754,5.782,5.782,0,0,0,4,1.305,5.339,5.339,0,0,0,3.75-1.91,5.494,5.494,0,0,0-.606-7.754,5.781,5.781,0,0,0-4-1.305,5.339,5.339,0,0,0-3.75,1.91Z"/><path class="cls-2" d="M316.97,1604.071a5.5,5.5,0,0,0,.6,7.754,5.789,5.789,0,0,0,4,1.305,5.336,5.336,0,0,0,3.75-1.911,5.493,5.493,0,0,0-.606-7.753,5.78,5.78,0,0,0-4-1.3,5.335,5.335,0,0,0-3.75,1.91Z"/><path class="cls-2" d="M1052.668,1587.388a5.494,5.494,0,0,0,.606,7.754,5.78,5.78,0,0,0,4,1.3,5.335,5.335,0,0,0,3.75-1.91,5.5,5.5,0,0,0-.605-7.754,5.782,5.782,0,0,0-4-1.3,5.339,5.339,0,0,0-3.75,1.91Z"/><path class="cls-2" d="M1256.712,1174.467a5.494,5.494,0,0,0,.606,7.754,5.78,5.78,0,0,0,4,1.305,5.335,5.335,0,0,0,3.75-1.91,5.5,5.5,0,0,0-.605-7.754,5.789,5.789,0,0,0-4-1.305,5.339,5.339,0,0,0-3.75,1.91Z"/><path class="cls-2" d="M1245.312,662.42a5.494,5.494,0,0,0,.606,7.754,5.78,5.78,0,0,0,4,1.3,5.335,5.335,0,0,0,3.75-1.91,5.5,5.5,0,0,0-.606-7.754,5.782,5.782,0,0,0-4-1.3,5.339,5.339,0,0,0-3.75,1.91Z"/><path class="cls-2" d="M953.018,447.515a5.5,5.5,0,0,0,.606,7.754,5.782,5.782,0,0,0,4,1.305,5.339,5.339,0,0,0,3.75-1.91,5.5,5.5,0,0,0-.606-7.754,5.782,5.782,0,0,0-4-1.305,5.339,5.339,0,0,0-3.75,1.91Z"/><path class="cls-2" d="M633.9,234.157a5.5,5.5,0,0,0,.606,7.754,5.782,5.782,0,0,0,4,1.305,5.336,5.336,0,0,0,3.75-1.911,5.5,5.5,0,0,0-.606-7.754,5.793,5.793,0,0,0-4-1.3,5.339,5.339,0,0,0-3.75,1.91Z"/><path class="cls-2" d="M330.308,343.294a5.5,5.5,0,0,0,.605,7.754,5.782,5.782,0,0,0,4,1.3,5.337,5.337,0,0,0,3.75-1.91,5.5,5.5,0,0,0-.6-7.754,5.788,5.788,0,0,0-4-1.3,5.337,5.337,0,0,0-3.75,1.91Z"/><path class="cls-2" d="M118,396.406a5.5,5.5,0,0,0,.606,7.754,5.782,5.782,0,0,0,4,1.3,5.339,5.339,0,0,0,3.75-1.91,5.5,5.5,0,0,0-.606-7.754,5.782,5.782,0,0,0-4-1.305,5.339,5.339,0,0,0-3.75,1.91Z"/><path class="cls-2" d="M480.249,123.191a5.494,5.494,0,0,0,.606,7.754,5.785,5.785,0,0,0,4,1.3,5.339,5.339,0,0,0,3.75-1.91,5.5,5.5,0,0,0-.606-7.754,5.788,5.788,0,0,0-4-1.3,5.335,5.335,0,0,0-3.75,1.91Z"/><path class="cls-2" d="M1083.991,206.306a5.5,5.5,0,0,0,.605,7.754,5.782,5.782,0,0,0,4,1.305,5.339,5.339,0,0,0,3.75-1.91,5.5,5.5,0,0,0-.605-7.754,5.79,5.79,0,0,0-4-1.305,5.335,5.335,0,0,0-3.75,1.91Z"/><path class="cls-2" d="M1358.66,441.053a5.5,5.5,0,0,0,.606,7.754,5.782,5.782,0,0,0,4,1.305,5.339,5.339,0,0,0,3.75-1.91,5.5,5.5,0,0,0-.606-7.754,5.782,5.782,0,0,0-4-1.305,5.339,5.339,0,0,0-3.75,1.91Z"/><path class="cls-2" d="M1340.112,1749.477a5.5,5.5,0,0,0,.605,7.754,5.782,5.782,0,0,0,4,1.305,5.334,5.334,0,0,0,3.75-1.911,5.494,5.494,0,0,0-.605-7.753,5.789,5.789,0,0,0-4-1.305,5.337,5.337,0,0,0-3.75,1.91Z"/><path class="cls-2" d="M229.275,1925.47a5.5,5.5,0,0,0,.606,7.754,5.782,5.782,0,0,0,4,1.305,5.339,5.339,0,0,0,3.75-1.91,5.494,5.494,0,0,0-.606-7.754,5.787,5.787,0,0,0-4-1.305,5.339,5.339,0,0,0-3.75,1.91Z"/><path class="cls-2" d="M126.107,1776.331a5.5,5.5,0,0,0,.605,7.754,5.782,5.782,0,0,0,4,1.305,5.334,5.334,0,0,0,3.75-1.911,5.494,5.494,0,0,0-.605-7.753,5.782,5.782,0,0,0-4-1.305,5.337,5.337,0,0,0-3.75,1.91Z"/><path class="cls-2" d="M290.748,1225.094a5.5,5.5,0,0,0,.606,7.754,5.782,5.782,0,0,0,4,1.3,5.339,5.339,0,0,0,3.75-1.91,5.5,5.5,0,0,0-.606-7.754,5.782,5.782,0,0,0-4-1.3,5.339,5.339,0,0,0-3.75,1.91Z"/><path class="cls-2" d="M135.739,1005.369a5.5,5.5,0,0,0,.606,7.753,5.782,5.782,0,0,0,4,1.305,5.339,5.339,0,0,0,3.75-1.91,5.494,5.494,0,0,0-.606-7.754,5.782,5.782,0,0,0-4-1.305,5.336,5.336,0,0,0-3.75,1.911Z"/><path class="cls-2" d="M127.687,691.774a5.5,5.5,0,0,0,.606,7.754,5.782,5.782,0,0,0,4,1.3,5.339,5.339,0,0,0,3.75-1.91,5.5,5.5,0,0,0-.606-7.754,5.782,5.782,0,0,0-4-1.3,5.339,5.339,0,0,0-3.75,1.91Z"/><path class="cls-2" d="M991.6,222.692a5.5,5.5,0,0,0,.606,7.754,5.782,5.782,0,0,0,4,1.305,5.339,5.339,0,0,0,3.75-1.91,5.494,5.494,0,0,0-.606-7.754,5.782,5.782,0,0,0-4-1.3,5.339,5.339,0,0,0-3.75,1.91Z"/><path class="cls-2" d="M1350.136,151.322a5.5,5.5,0,0,0,.606,7.754,5.782,5.782,0,0,0,4,1.3,5.335,5.335,0,0,0,3.75-1.91,5.494,5.494,0,0,0-.606-7.754,5.785,5.785,0,0,0-4-1.3,5.339,5.339,0,0,0-3.75,1.91Z"/><path class="cls-2" d="M1194.3,364.555a5.5,5.5,0,0,0,.606,7.754,5.782,5.782,0,0,0,4,1.3,5.336,5.336,0,0,0,3.75-1.911,5.5,5.5,0,0,0-.606-7.753,5.789,5.789,0,0,0-4-1.305,5.339,5.339,0,0,0-3.75,1.91Z"/><path class="cls-2" d="M1406.735,740.431a5.5,5.5,0,0,0,.605,7.754,5.782,5.782,0,0,0,4,1.305,5.334,5.334,0,0,0,3.75-1.911,5.494,5.494,0,0,0-.605-7.753,5.782,5.782,0,0,0-4-1.305,5.337,5.337,0,0,0-3.75,1.91Z"/><path class="cls-5" d="M631.4,320.269a2.757,2.757,0,0,0,.957,1.875,2.877,2.877,0,0,0,2,.653,2.749,2.749,0,0,0,1.57-4.832,2.877,2.877,0,0,0-2-.653,2.76,2.76,0,0,0-2.527,2.957Z"/><path class="cls-5" d="M831.011,276.213a2.768,2.768,0,0,0,.957,1.875,2.876,2.876,0,0,0,2,.652,2.748,2.748,0,0,0,1.571-4.832,2.876,2.876,0,0,0-2-.652,2.762,2.762,0,0,0-2.528,2.957Z"/><path class="cls-5" d="M1072.733,267.49a2.769,2.769,0,0,0,.953,1.875,2.893,2.893,0,0,0,2,.653,2.751,2.751,0,0,0,1.574-4.832,2.893,2.893,0,0,0-2-.653,2.76,2.76,0,0,0-2.527,2.957Z"/><path class="cls-5" d="M1266.9,862.478a2.78,2.78,0,0,0,.953,1.875,2.892,2.892,0,0,0,2,.652,2.75,2.75,0,0,0,1.574-4.832,2.89,2.89,0,0,0-2-.652,2.762,2.762,0,0,0-2.528,2.957Z"/><path class="cls-5" d="M1300.02,1381.992a2.773,2.773,0,0,0,.953,1.875,2.9,2.9,0,0,0,2,.652,2.751,2.751,0,0,0,1.574-4.832,2.892,2.892,0,0,0-2-.652,2.76,2.76,0,0,0-2.527,2.957Z"/><path class="cls-5" d="M1138.433,1570.061a2.775,2.775,0,0,0,.954,1.875,2.892,2.892,0,0,0,2,.653,2.751,2.751,0,0,0,1.574-4.832,2.893,2.893,0,0,0-2-.653,2.762,2.762,0,0,0-2.528,2.957Z"/><path class="cls-5" d="M730.239,1845.448a2.757,2.757,0,0,0,.957,1.875,2.877,2.877,0,0,0,2,.653,2.749,2.749,0,0,0,1.57-4.832,2.877,2.877,0,0,0-2-.653,2.761,2.761,0,0,0-2.527,2.957Z"/><path class="cls-5" d="M484.339,1635.852a2.778,2.778,0,0,0,.953,1.875,2.9,2.9,0,0,0,2,.652,2.751,2.751,0,0,0,1.574-4.832,2.892,2.892,0,0,0-2-.652,2.76,2.76,0,0,0-2.527,2.957Z"/><path class="cls-5" d="M275.363,1802.792a2.775,2.775,0,0,0,.953,1.875,2.892,2.892,0,0,0,2,.652,2.751,2.751,0,0,0,1.574-4.832,2.892,2.892,0,0,0-2-.652,2.761,2.761,0,0,0-2.527,2.957Z"/><path class="cls-5" d="M228.527,1475.735a2.771,2.771,0,0,0,.953,1.875,2.892,2.892,0,0,0,2,.652,2.751,2.751,0,0,0,1.574-4.832,2.892,2.892,0,0,0-2-.652,2.76,2.76,0,0,0-2.527,2.957Z"/><path class="cls-5" d="M158.992,1272.421a2.777,2.777,0,0,0,.954,1.875,2.89,2.89,0,0,0,2,.652,2.751,2.751,0,0,0,1.575-4.832,2.892,2.892,0,0,0-2-.652,2.762,2.762,0,0,0-2.528,2.957Z"/><path class="cls-5" d="M226.122,749.928a2.775,2.775,0,0,0,.954,1.875,2.891,2.891,0,0,0,2,.653,2.751,2.751,0,0,0,1.575-4.832,2.893,2.893,0,0,0-2-.653,2.762,2.762,0,0,0-2.528,2.957Z"/><path class="cls-5" d="M163.591,517.064a2.773,2.773,0,0,0,.953,1.875,2.892,2.892,0,0,0,2,.652,2.751,2.751,0,0,0,1.574-4.832,2.892,2.892,0,0,0-2-.652,2.76,2.76,0,0,0-2.527,2.957Z"/><path class="cls-5" d="M235.364,209.6a2.775,2.775,0,0,0,.953,1.875,2.892,2.892,0,0,0,2,.652A2.751,2.751,0,0,0,239.9,207.3a2.892,2.892,0,0,0-2-.652,2.761,2.761,0,0,0-2.527,2.957Z"/><path class="cls-5" d="M1223.7,106.184a2.775,2.775,0,0,0,.953,1.875,2.892,2.892,0,0,0,2,.652,2.751,2.751,0,0,0,1.574-4.832,2.892,2.892,0,0,0-2-.652,2.761,2.761,0,0,0-2.527,2.957Z"/><path class="cls-5" d="M1161.157,552.443a2.773,2.773,0,0,0,.953,1.875,2.9,2.9,0,0,0,2,.652,2.751,2.751,0,0,0,1.574-4.832,2.893,2.893,0,0,0-2-.653,2.761,2.761,0,0,0-2.527,2.958Z"/><path class="cls-5" d="M1423.743,216.273a2.769,2.769,0,0,0,.953,1.875,2.893,2.893,0,0,0,2,.653,2.751,2.751,0,0,0,1.574-4.832,2.893,2.893,0,0,0-2-.653,2.76,2.76,0,0,0-2.527,2.957Z"/><path class="cls-5" d="M1032.185,443.808a2.78,2.78,0,0,0,.953,1.875,2.892,2.892,0,0,0,2,.652,2.751,2.751,0,0,0,1.575-4.832,2.892,2.892,0,0,0-2-.652,2.762,2.762,0,0,0-2.528,2.957Z"/><path class="cls-5" d="M787.021,534.219a2.766,2.766,0,0,0,.957,1.875,2.879,2.879,0,0,0,2,.653,2.748,2.748,0,0,0,1.571-4.832,2.877,2.877,0,0,0-2-.653,2.762,2.762,0,0,0-2.528,2.957Z"/><path class="cls-5" d="M1321.027,1678.445a2.779,2.779,0,0,0,.954,1.875,2.89,2.89,0,0,0,2,.652,2.751,2.751,0,0,0,1.575-4.832,2.892,2.892,0,0,0-2-.652,2.762,2.762,0,0,0-2.528,2.957Z"/><path class="cls-5" d="M1324.342,2002.214a2.775,2.775,0,0,0,.954,1.875,2.891,2.891,0,0,0,2,.653,2.751,2.751,0,0,0,1.575-4.832,2.913,2.913,0,0,0-2-.653,2.762,2.762,0,0,0-2.528,2.957Z"/><path class="cls-5" d="M1024.022,1910.593a2.778,2.778,0,0,0,.953,1.875,2.893,2.893,0,0,0,2,.653,2.75,2.75,0,0,0,1.574-4.832,2.891,2.891,0,0,0-2-.653,2.762,2.762,0,0,0-2.528,2.957Z"/><path class="cls-5" d="M1446.473,1540.622a2.769,2.769,0,0,0,.953,1.875,2.893,2.893,0,0,0,2,.653,2.751,2.751,0,0,0,1.574-4.832,2.893,2.893,0,0,0-2-.653,2.76,2.76,0,0,0-2.527,2.957Z"/><path class="cls-5" d="M1156.327,1284.176a2.773,2.773,0,0,0,.953,1.875,2.9,2.9,0,0,0,2,.652,2.751,2.751,0,0,0,1.574-4.832,2.892,2.892,0,0,0-2-.652,2.76,2.76,0,0,0-2.527,2.957Z"/><path class="cls-6" d="M431.391,234.6a5.751,5.751,0,0,0,.633,8.109,6.072,6.072,0,0,0,4.187,1.364,5.587,5.587,0,0,0,3.922-2,5.751,5.751,0,0,0-.633-8.109,6.071,6.071,0,0,0-4.187-1.363,5.59,5.59,0,0,0-3.922,2Z"/><path class="cls-6" d="M1313.049,301.211a5.751,5.751,0,0,0,.633,8.109,6.074,6.074,0,0,0,4.188,1.364,5.59,5.59,0,0,0,3.922-2,5.752,5.752,0,0,0-.633-8.11,6.075,6.075,0,0,0-4.188-1.363,5.59,5.59,0,0,0-3.922,2Z"/><path class="cls-6" d="M1273.133,1082.605a5.749,5.749,0,0,0,.633,8.109,6.071,6.071,0,0,0,4.187,1.363,5.59,5.59,0,0,0,3.922-2,5.751,5.751,0,0,0-.633-8.109,6.071,6.071,0,0,0-4.187-1.363,5.588,5.588,0,0,0-3.922,2Z"/><path class="cls-6" d="M843.627,1705.221a5.749,5.749,0,0,0,.633,8.109,6.071,6.071,0,0,0,4.187,1.363,5.59,5.59,0,0,0,3.922-2,5.751,5.751,0,0,0-.633-8.109,6.071,6.071,0,0,0-4.187-1.363,5.588,5.588,0,0,0-3.922,2Z"/><path class="cls-6" d="M507.645,1852.857a5.749,5.749,0,0,0,.633,8.109,6.071,6.071,0,0,0,4.187,1.363,5.59,5.59,0,0,0,3.922-2,5.751,5.751,0,0,0-.633-8.109,6.071,6.071,0,0,0-4.187-1.363,5.59,5.59,0,0,0-3.922,2Z"/><path class="cls-6" d="M202.039,1570.081a5.752,5.752,0,0,0,.633,8.11,6.071,6.071,0,0,0,4.187,1.363,5.59,5.59,0,0,0,3.922-2,5.75,5.75,0,0,0-.633-8.11,6.076,6.076,0,0,0-4.187-1.363,5.59,5.59,0,0,0-3.922,2Z"/><path class="cls-6" d="M258.932,1051.6a5.751,5.751,0,0,0,.633,8.109,6.076,6.076,0,0,0,4.188,1.364,5.59,5.59,0,0,0,3.922-2,5.752,5.752,0,0,0-.633-8.11,6.074,6.074,0,0,0-4.188-1.363,5.59,5.59,0,0,0-3.922,2Z"/><path class="cls-6" d="M294.584,510.625a5.751,5.751,0,0,0,.633,8.109A6.071,6.071,0,0,0,299.4,520.1a5.59,5.59,0,0,0,3.922-2,5.751,5.751,0,0,0-.633-8.109,6.071,6.071,0,0,0-4.187-1.363,5.59,5.59,0,0,0-3.922,2Z"/><path class="cls-6" d="M519,328.366a5.749,5.749,0,0,0,.633,8.109,6.071,6.071,0,0,0,4.187,1.363,5.59,5.59,0,0,0,3.922-2,5.751,5.751,0,0,0-.633-8.109,6.065,6.065,0,0,0-4.187-1.363,5.59,5.59,0,0,0-3.922,2Z"/><path class="cls-4" d="M432.19,236.46a3.491,3.491,0,0,0,.535,4.918,3.746,3.746,0,0,0,2.57.754,3.352,3.352,0,0,0,2.348-1.289,3.491,3.491,0,0,0-.535-4.918,3.746,3.746,0,0,0-2.57-.754,3.352,3.352,0,0,0-2.348,1.289Z"/><path class="cls-4" d="M1274.153,1084.367a3.491,3.491,0,0,0,.535,4.918,3.745,3.745,0,0,0,2.57.754,3.354,3.354,0,0,0,2.348-1.289,3.491,3.491,0,0,0-.535-4.918,3.749,3.749,0,0,0-2.571-.754,3.35,3.35,0,0,0-2.347,1.289Z"/><path class="cls-4" d="M508.123,1855.258a3.5,3.5,0,1,0,3.5-3.5,3.535,3.535,0,0,0-3.5,3.5Z"/><path class="cls-4" d="M484.291,1772.326a3.5,3.5,0,1,0,3.5-3.5,3.535,3.535,0,0,0-3.5,3.5Z"/><path class="cls-5" d="M824.414,67.62a.5.5,0,0,0-.262.657c.137.308.278.621.387.937.1.294.191.584.278.88a5.514,5.514,0,0,1,.128.854c.012.18.008.36.012.539a.468.468,0,0,0,.2.333.517.517,0,0,0,.368.1.506.506,0,0,0,.332-.2.567.567,0,0,0,.1-.371c0-.242-.007-.481-.023-.723a6.327,6.327,0,0,0-.289-1.281c-.028-.1-.067-.2-.1-.3s-.062-.2-.105-.3c-.117-.289-.235-.578-.36-.867a.507.507,0,0,0-.462-.3.492.492,0,0,0-.194.04Z"/><path class="cls-5" d="M825.221,66.987a.5.5,0,0,0-.426.563c.065,1.027.147,2.051.159,3.078-.007.248-.012.493-.038.742a5.905,5.905,0,0,1-.15.865c-.012.037-.025.074-.041.111A.514.514,0,0,0,825,73a.506.506,0,0,0,.653-.274,5.329,5.329,0,0,0,.269-1.328,10.162,10.162,0,0,0,.024-1.246c-.031-.918-.1-1.828-.16-2.742a.5.5,0,0,0-.5-.43.44.44,0,0,0-.062,0ZM824.8,72.12c-.008.035-.018.069-.029.1l.029-.1Z"/><path class="cls-5" d="M824.669,66.95a.5.5,0,0,0-.265.269.528.528,0,0,0,0,.387c.017.058.037.116.054.173.071.266.148.53.2.8.07.347.14.7.2,1.05.062.375.121.747.176,1.122.042.319.058.639.07.958,0,.241,0,.48-.02.721-.011.16-.023.321-.039.485,0,.06-.009.121-.014.183a.486.486,0,0,0-.161.211.474.474,0,0,0,0,.387,1.05,1.05,0,0,0,.152.222.532.532,0,0,0,.328.188.515.515,0,0,0,.465-.195.6.6,0,0,0,.16-.309,1.669,1.669,0,0,0,.031-.242c.016-.133.028-.27.039-.4.028-.27.039-.54.051-.813a8.959,8.959,0,0,0-.082-1.586c-.074-.535-.164-1.066-.266-1.6-.046-.246-.086-.492-.148-.73-.09-.344-.172-.688-.281-1.023a.512.512,0,0,0-.657-.262Zm1.128,6.356.008.014-.01-.014Z"/><path class="cls-5" d="M824.9,66.487a.5.5,0,0,0-.426.563c.09.617.172,1.23.238,1.848.028.261.055.519.075.781.021.23.026.458.032.687-.011.278-.026.55-.048.824a6.665,6.665,0,0,1-.156.885,5.108,5.108,0,0,1-.231.653.509.509,0,0,0-.39.56.541.541,0,0,0,.351.485.515.515,0,0,0,.305.019.5.5,0,0,0,.238-.1.794.794,0,0,0,.145-.132,2.576,2.576,0,0,0,.488-1.032,7.417,7.417,0,0,0,.277-1.683,11.642,11.642,0,0,0-.062-1.77q-.117-1.083-.274-2.16a.5.5,0,0,0-.493-.431.534.534,0,0,0-.069,0Zm-.288,5.6-.013.06c0-.021.008-.04.013-.06Zm-.346.838q-.015.017-.03.03l.03-.03Z"/><path class="cls-5" d="M824.134,66.689a.515.515,0,0,0-.332.2.486.486,0,0,0-.093.371c.171.672.355,1.344.492,2.024.058.3.125.6.168.906a9.364,9.364,0,0,1,.076.948,4.7,4.7,0,0,1-.029.529c-.028.206-.061.409-.106.609a4.388,4.388,0,0,1-.16.465.566.566,0,0,0-.316.2.579.579,0,0,0-.067.558.623.623,0,0,0,.324.352.561.561,0,0,0,.59-.106l.328.047a6.487,6.487,0,0,1,.723.152c.205.061.407.126.609.2a4.87,4.87,0,0,1,.653.309c-.035-.024-.074-.043-.11-.067a4.307,4.307,0,0,1,.726.518,1.091,1.091,0,0,1,.11.138.5.5,0,1,0,.785-.617,3.728,3.728,0,0,0-1.335-1.008,6.808,6.808,0,0,0-1.457-.5,4.536,4.536,0,0,0-.519-.1,5.645,5.645,0,0,0,.186-.8,6.394,6.394,0,0,0,.024-1.594c-.02-.246-.066-.492-.106-.734s-.093-.488-.148-.73c-.117-.52-.246-1.032-.379-1.547-.023-.1-.051-.2-.074-.289a.537.537,0,0,0-.192-.332.526.526,0,0,0-.31-.1.417.417,0,0,0-.061,0Z"/><path class="cls-5" d="M829.862,70.729a11.131,11.131,0,0,0-.359,1.25,9.529,9.529,0,0,0-.156,1.25,10.551,10.551,0,0,0,0,1.27c.007.1.016.208.027.313-.124-.1-.25-.2-.378-.3a7.086,7.086,0,0,0-1.281-.781,5.2,5.2,0,0,0-.672-.246,6.367,6.367,0,0,0-.77-.191,6.1,6.1,0,0,0-.715-.09c-.3-.028-.6-.051-.9-.071a.51.51,0,0,0-.562.43.5.5,0,0,0,.429.563c.387.027.774.054,1.16.093a5.69,5.69,0,0,1,.925.173c.2.062.392.129.587.206a4.517,4.517,0,0,1,.564.275,11.3,11.3,0,0,1,.956.69c.144.113.281.238.422.356a1.764,1.764,0,0,0,.55.379.634.634,0,0,0,.446,0,.625.625,0,0,0,.293-.305.553.553,0,0,0,.039-.192,2.289,2.289,0,0,0-.012-.32c-.016-.133-.027-.265-.043-.4-.042-.381-.075-.76-.087-1.143v.01c0-.367.02-.734.055-1.1a6.84,6.84,0,0,1,.217-1.159c.058-.194.127-.385.189-.579a.508.508,0,0,0-.273-.652.505.505,0,0,0-.653.273Z"/><path class="cls-5" d="M825.046,67.156a.524.524,0,0,0-.1.371.537.537,0,0,0,.2.332c.395.348.789.7,1.192,1.043.355.3.711.594,1.058.894a9.057,9.057,0,0,0,1.125.836,4.421,4.421,0,0,0,.688.336c.1.039.195.074.293.11a3.461,3.461,0,0,0,.445.117.933.933,0,0,0,.375-.02.5.5,0,1,0-.137-.988l-.086.017a.793.793,0,0,1-.1-.014,5.9,5.9,0,0,1-.93-.389,8.751,8.751,0,0,1-.782-.559c-.289-.231-.563-.477-.84-.715-.25-.211-.5-.422-.754-.633-.32-.273-.633-.555-.949-.832a.421.421,0,0,0-.285-.105.533.533,0,0,0-.414.2Zm4.074,2.677.035.022-.035-.022Zm.8.338.039.011-.039-.011Zm.277.036h0Z"/><path class="cls-5" d="M825.766,67.063a.5.5,0,0,0-.426.563c.065.54.133,1.077.2,1.614a.512.512,0,0,0-.114.109.542.542,0,0,0-.094.371,2.452,2.452,0,0,0,.035.328c.012.117.027.23.043.348.024.218.051.437.078.66s.051.429.074.648c.012.109.028.223.04.332a1.053,1.053,0,0,0,.175.582.532.532,0,0,0,.3.18c.066.266.3.4.517.555.187.132.382.257.574.39.34.246.676.5,1,.774a.465.465,0,0,0,.465.07.5.5,0,0,0,.371-.1l.007-.006a.533.533,0,0,0,.583.131l.011-.007a.494.494,0,0,0,.3-.395,3.776,3.776,0,0,0,.012-.477c0-.136,0-.277.008-.414s.008-.257.015-.386a1.362,1.362,0,0,0-.046-.575.5.5,0,0,0-.23-.244l-.044-.1c-.013-.034-.028-.067-.044-.1.036-.013.071-.026.107-.041a1.37,1.37,0,0,0,.242-.152.864.864,0,0,0,.219-.293.636.636,0,0,0,.035-.305.623.623,0,0,0-.149-.316.733.733,0,0,0-.527-.235l-.085,0-.032-.027a.477.477,0,0,0-.383-.105.582.582,0,0,0-.32.17l-.012-.01-.082-.065a1.138,1.138,0,0,0-.207-.209.569.569,0,0,0-.2-.085q-.194-.132-.391-.258l-.055-.039a9.485,9.485,0,0,1-.814-.672c-.031-.035-.062-.07-.092-.106a.541.541,0,0,0-.316-.182c-.061-.495-.124-.99-.184-1.486a.507.507,0,0,0-.5-.43c-.022,0-.043,0-.064,0Z"/><path class="cls-5" d="M1070.469,683.99a.518.518,0,0,0-.45.259c-.207.371-.418.746-.629,1.117a9.755,9.755,0,0,1-.71,1.116c-.094.113-.187.218-.285.324a3.137,3.137,0,0,1-.4.35,12.325,12.325,0,0,1-1.483.952c-.226.117-.46.219-.7.316l-.121.055c-.542.2-1.085.394-1.636.562a.535.535,0,0,0-.381.469l-.3-.218a.454.454,0,0,0-.252-.072.523.523,0,0,0-.267.972c.316.2.628.4.933.613a4.28,4.28,0,0,1,.654.623,4.637,4.637,0,0,1,.413.767l.035.1c.062.172.125.348.175.527.067.246.113.492.156.737l.012.1.012.2c.007.173.007.344.007.516,0,.254-.023.507-.046.761-.051.343-.094.6-.141.85l-.055.3a.524.524,0,0,0,.375.629.453.453,0,0,0,.127.02.567.567,0,0,0,.191-.038.463.463,0,0,0,.123.422.507.507,0,0,0,.362.155.564.564,0,0,0,.374-.147l.086-.082.088-.08c.185-.169.368-.336.56-.494l.43-.352.277-.222a13.172,13.172,0,0,1,1.393-.913c.246-.137.492-.27.746-.4.181-.09.372-.167.561-.243l.173-.073.1-.039a3.558,3.558,0,0,1,.853-.269.446.446,0,0,0,.3-.207.544.544,0,0,0,.072-.43.513.513,0,0,0-.243-.315.488.488,0,0,0-.251-.072.579.579,0,0,0-.143.02,3.374,3.374,0,0,0-.594.165l.122-.061a5.67,5.67,0,0,0,.552-.509,1.38,1.38,0,0,0,.256-.37.138.138,0,0,0,.045.083.488.488,0,0,0,.383.189.468.468,0,0,0,.251-.072.54.54,0,0,0,.255-.338.452.452,0,0,0-.06-.368l-.086-.129a6.5,6.5,0,0,1-.375-.608c-.105-.2-.195-.406-.281-.613a8.687,8.687,0,0,1-.319-1.029,11.663,11.663,0,0,1-.215-1.16,12.913,12.913,0,0,1-.059-1.4c.012-.555.055-1.1.1-1.656a.445.445,0,0,0-.124-.351.5.5,0,0,0-.543-.158.359.359,0,0,0,.088-.214.491.491,0,0,0-.246-.5.513.513,0,0,0-.259-.072Z"/><path class="cls-5" d="M1072.325,692.054c-.317.066-.633.137-.95.2-.129.028-.257.047-.386.071a1.591,1.591,0,0,0-.34.07.5.5,0,0,0-.371.484.49.49,0,0,0,.144.348.531.531,0,0,0,.356.148,3.505,3.505,0,0,0,.41,0c.187,0,.371,0,.555,0a.5.5,0,0,0,.437-.264l.406-.087a.5.5,0,0,0-.144-.981.581.581,0,0,0-.117.012Z"/><path class="cls-5" d="M1071.459,693.067a.5.5,0,1,0,.5-.5.5.5,0,0,0-.5.5Z"/><path class="cls-5" d="M1071.913,692.616a.5.5,0,1,0,.5-.5.5.5,0,0,0-.5.5Z"/><path class="cls-5" d="M1071.974,692.75a.5.5,0,1,0,.5-.5.5.5,0,0,0-.5.5Z"/><path class="cls-7" d="M225.537,315.39a11.25,11.25,0,1,0,11.25-11.25,11.354,11.354,0,0,0-11.25,11.25Z"/><path class="cls-7" d="M820.8,1196.919a11.242,11.242,0,0,0,1.14,15.867,11.775,11.775,0,0,0,8.168,2.719,10.931,10.931,0,0,0,7.7-3.86,11.242,11.242,0,0,0-1.14-15.867,11.78,11.78,0,0,0-8.168-2.719,10.935,10.935,0,0,0-7.7,3.86Z"/><path class="cls-7" d="M311.664,1936.909a11.243,11.243,0,0,0,1.141,15.867,11.775,11.775,0,0,0,8.168,2.719,10.931,10.931,0,0,0,7.7-3.86,11.242,11.242,0,0,0-1.14-15.867,11.779,11.779,0,0,0-8.168-2.718,10.938,10.938,0,0,0-7.7,3.859Z"/><path class="cls-7" d="M1341.087,961.731a11.243,11.243,0,0,0,1.14,15.868,11.779,11.779,0,0,0,8.168,2.718,10.933,10.933,0,0,0,7.7-3.859,11.242,11.242,0,0,0-1.14-15.867,11.775,11.775,0,0,0-8.168-2.719,10.933,10.933,0,0,0-7.7,3.859Z"/></svg>