<svg id="Layer_12" data-name="Layer 12" xmlns="http://www.w3.org/2000/svg" viewBox="0 0 89.721 99.621"><defs><style>.cls-1{fill:#171717;}</style></defs><title>spaceshuttle_single_thruster</title><path class="cls-1" d="M1029.729,1469.907a1.836,1.836,0,0,1,.464.6,91.079,91.079,0,0,0,12.539,5.195,110.209,110.209,0,0,0,14.473,3.739,125.677,125.677,0,0,0,15.211,1.847c2.336.145,4.625.231,6.813.262l.121.012h.933l.906,0a177.145,177.145,0,0,0,29.3-2.563l-.011.035a1.308,1.308,0,0,1,.152-.219,1.79,1.79,0,0,1,1.183-.6c.051,0,.1-.008.153-.008a1.747,1.747,0,0,1,1.148.43,1.709,1.709,0,0,1,.606,1.183c-.02.8-.039,1.6-.063,2.4-.019.84-.043,1.64-.07,2.441-.289,9.211-.777,18.3-1.457,27.055-.7,8.984-1.649,18.418-2.988,29.676l-.012.125-.363,2.953c-.02.152-.028.215-.036.273a1.133,1.133,0,0,1-.015.129q-.375,2.965-.805,5.93l-.305,2.066c-.191,1.27-.378,2.477-.574,3.684-.316,1.949-.633,3.808-.969,5.668l-.066.363-.055.316c-.023.133-.047.262-.074.4a1.743,1.743,0,0,1-.144.445,5.551,5.551,0,0,0-.762.211l-.042.015a5.65,5.65,0,0,0-1.819.427l-.006,0c-.754.179-1.52.359-2.285.535l-.157.023,0,.008-.152.035c-.043.008-.09.02-.133.032l-.117.023c-1.68.379-3.328.73-4.9,1.039l-.149.035a154.669,154.669,0,0,1-22.6,2.863c-2.012.1-4.04.149-6.028.149a115.838,115.838,0,0,1-15.969-1.086q-4.581-.651-8.765-1.633l-.1-.019c-.074-.02-.148-.039-.223-.055-1.488-.359-2.824-.715-4.082-1.078l-.117-.031c-.418-.125-.765-.227-1.113-.336-.172-.047-.285-.082-.4-.121-1.418-.438-2.84-.915-4.231-1.415l-.176-.066-.125-.047-.148-.058,0,.007c-.734-.273-1.461-.558-2.188-.847a1.276,1.276,0,0,1-.179.1,5.7,5.7,0,0,0-2.332-1.015.479.479,0,0,0-.078-.008c-.02-.063-.039-.129-.055-.2l-.1-.047a5.877,5.877,0,0,0-.324-2.828,1.369,1.369,0,0,1,.164-.129q-.123-1.383-.223-2.758l-.015-.219c-.016-.172-.024-.293-.031-.414l-.032-.383-.027-.382-.023-.3-.016-.25,0-.153h-.008c-.453-6.316-.824-12.828-1.133-20-.226-5.222-.437-10.754-.5-16.308-.063-5.6.011-11.11.214-16.426l0-.219.008-.172.02-.535.023-.535.012-.1h-.008c.309-7.121.809-13.722,1.527-20.179.012-.129.02-.207.032-.289.242-2.168.5-4.27.781-6.274a1.476,1.476,0,0,1,.258-.668,1.108,1.108,0,0,1-.039-.215,1.762,1.762,0,0,1,.394-1.308,1.717,1.717,0,0,1,1.172-.629,1.924,1.924,0,0,1,1.309.4Z" transform="translate(-1024 -1469.509)"/></svg>