<svg id="Draw_Layer" data-name="Draw Layer" xmlns="http://www.w3.org/2000/svg" viewBox="0 0 186.73 769.194"><defs><style>.cls-1{fill:#282828;}.cls-2{fill:#dedede;}</style></defs><title>spaceshuttle_sidebooster</title><path class="cls-1" d="M1174.334,1387.316c-.137,1-.266,2-.395,3-.449,2.988-.894,5.98-1.355,8.965-.254,1.613-.484,3.23-.742,4.843-.117.727-.235,1.45-.352,2.176a8.267,8.267,0,0,0-.176,3.371,4.249,4.249,0,0,0,6.243,2.539,4.072,4.072,0,0,0,1.953-2.539,1.905,1.905,0,0,1,.054-.293,5.664,5.664,0,0,0,.122-.875c1.007-6.484,2.054-12.965,2.921-19.476.008-.06.017-.119.025-.181-2.6-.475-5.056-1.019-7.415-1.643-.28-.074-.559-.149-.839-.226-.014.114-.029.228-.044.339Z" transform="translate(-1125.89 -682.196)"/><path class="cls-1" d="M1171.674,1392.515c-.485,2.523-.965,5.043-1.293,7.59-.067.515-.133,1.027-.2,1.543-.3,1.406-.59,2.812-.864,4.222-.285,1.465-.547,2.938-.8,4.407q-.24,1.2-.48,2.383c-.289,1.445-.551,2.9-.824,4.347-.164.895-.293,1.8-.442,2.7q-.193,1.173-.343,2.344c-.028.18-.047.363-.067.543-.031.156-.055.309-.082.465-.2,1.238-.355,2.488-.437,3.742-.024.426-.051.856-.075,1.285a6,6,0,0,0-.675,3.2c.011.188.027.372.046.551-.015.227-.027.453-.035.684a6.176,6.176,0,0,0,.387,2.187c.2.559.395,1.075.648,1.625a4.733,4.733,0,0,0,1.77,1.879,5.77,5.77,0,0,0,2.051.742c.082.016.168.028.25.043.047.036.094.067.14.1a12.861,12.861,0,0,0,3.4,1.719c.652.226,1.308.445,1.965.648a8.9,8.9,0,0,0,2.359.328,5.791,5.791,0,0,0,.684-.023l.187-.012a3.978,3.978,0,0,0,.606.137,4.621,4.621,0,0,0,.988.269,12.04,12.04,0,0,0,2.18.2,10.122,10.122,0,0,0,1.695-.192,6.173,6.173,0,0,0,1.105-.453,4.211,4.211,0,0,0,1.957-2.555,4.121,4.121,0,0,0-1.09-4.136,4.775,4.775,0,0,0-3.32-1.282,7.349,7.349,0,0,1-.84-.042c.246.031.5.066.743.1l-.954-.117-.152-.082a13.122,13.122,0,0,0-1.559-.652,7.63,7.63,0,0,1-.746-.4,8.285,8.285,0,0,0-1.324-.945c-.449-.25-.89-.512-1.336-.774a13.214,13.214,0,0,0-1.262-.625,4.245,4.245,0,0,0,.95-1.632,2.757,2.757,0,0,0,.394-.625,9.109,9.109,0,0,0,.817-3.27,12.565,12.565,0,0,0-.012-1.871c-.012-.3-.02-.594-.02-.887l.094-.644c.336-2.227.676-4.453,1.086-6.672.891-4.863,1.781-9.738,2.238-14.668.028-.281.047-.563.059-.844q.228-1.067.445-2.137.4-1.956.782-3.914c.117-.593.214-1.195.308-1.8.113-.691.246-1.394.32-2.1.022-.068.043-.135.064-.2-2.8-.5-5.433-1.073-7.954-1.74q-1.149-.3-2.3-.641c-.529,1.955-.867,3.971-1.245,5.953Zm-6.391,37.891c0-.055.012-.106.02-.161-.008.055-.012.114-.02.168v-.007Z" transform="translate(-1125.89 -682.196)"/><path class="cls-1" d="M1173.8,1399.172a4.655,4.655,0,0,0-1.921,1.113,4.893,4.893,0,0,0-.731.941,3.28,3.28,0,0,0-.5,1.281c-.087.557-.146,1.114-.212,1.673-.145.986-.305,1.971-.444,2.956-.051.375-.1.754-.152,1.129a4.233,4.233,0,0,0,.578,2.145,4.256,4.256,0,0,0,5.816,1.527,4.06,4.06,0,0,0,1.953-2.543c.215-1.492.476-2.984.665-4.482a4.245,4.245,0,0,0-1.774-5.311,4.694,4.694,0,0,0-2.241-.615,2.73,2.73,0,0,0-1.037.186Z" transform="translate(-1125.89 -682.196)"/><path class="cls-1" d="M1169.9,1387.593c-1.015,7.391-1.839,14.817-2.539,22.246-.019.133-.039.266-.058.4-.2,1.449-.5,2.941-.586,4.425q-.258,1.441-.508,2.887c-.105.613-.188,1.238-.273,1.856a.128.128,0,0,0-.016.043c-.4,1.378-.766,2.765-1.125,4.152-.172.68-.34,1.359-.5,2.043a10.783,10.783,0,0,0-.363,5.105,4.283,4.283,0,0,0,4.1,3.117,4.188,4.188,0,0,0,2.524-.777,4.253,4.253,0,0,0,3.574.59,4.769,4.769,0,0,0,3.211-3.4,11.887,11.887,0,0,0,.226-1.395c.051-.379.1-.754.149-1.133,0-.058,0-.117,0-.176a42.669,42.669,0,0,0,1.676-6.367c.261-1.265.547-2.531.754-3.8.117-.739.234-1.473.343-2.211a6.224,6.224,0,0,0,.043-2.805,4.336,4.336,0,0,0-2.019-2.582,3.939,3.939,0,0,0-1.1-.434c.016-.289.028-.574.039-.863a.372.372,0,0,0,.008-.066v-.079c.008-.144.016-.292.02-.437.078-1.785.129-3.566.2-5.352.035-.984.074-1.964.117-2.949.406-2.828.832-5.656,1.305-8.476q.261-1.455.512-2.908c-1.505-.321-2.963-.669-4.387-1.045-1.685-.444-3.367-.944-5.062-1.5-.1.627-.181,1.261-.255,1.895Z" transform="translate(-1125.89 -682.196)"/><path class="cls-1" d="M1166.893,1386.484c-.329,1.594-.539,3.2-.883,4.793-.235,1.1-.61,2.168-.809,3.273-.195,1.067-.242,2.129-.344,3.195-.285,1.668-.695,3.309-.929,4.981a38.221,38.221,0,0,0-.387,3.945c-.027.813-.074,1.637-.156,2.453a7.305,7.305,0,0,0-.215,1.621,7.088,7.088,0,0,1-.031.911c-.039.422-.071.843-.114,1.265-.105.641-.222,1.278-.289,1.93-.062.57-.035,1.156-.058,1.73-.016.438-.051.875-.078,1.313s.027.844.031,1.266c-.016.054-.031.113-.043.168a13.252,13.252,0,0,0-.406,2.171,18.241,18.241,0,0,0-.141,2.164,23.643,23.643,0,0,0,.246,3.067,3.12,3.12,0,0,0-.18,1.383c.055.574.145,1.125.25,1.687a4.585,4.585,0,0,0,.145.559q.053.422.141.832c.05.265.132.519.2.777a5.094,5.094,0,0,0,.144.766,6.309,6.309,0,0,0,.41,1.047,8.2,8.2,0,0,0,.879,1.718c.321.461.668.9,1.02,1.344.293.41.57.82.906,1.219.192.23.434.394.641.605a7.094,7.094,0,0,0,2.746,1.614,6.217,6.217,0,0,0,1.8.922,4.829,4.829,0,0,0,2.23.128,5.36,5.36,0,0,0,1.375.086,5.647,5.647,0,0,0,2.531-.656,4.358,4.358,0,0,0,2.223-3.8,4.969,4.969,0,0,0-2.562-4.234,6.976,6.976,0,0,0-2.2-.68,6.61,6.61,0,0,0-.668-.461c-.079-.047-.153-.09-.227-.132-.2-.161-.406-.313-.613-.458a3.53,3.53,0,0,0-.352-.2c-.047-.1-.1-.195-.148-.289-.082-.144-.172-.281-.258-.418-.024-.105-.043-.211-.067-.316-.035-.141-.082-.278-.125-.41-.046-.493-.109-.981-.183-1.473-.031-.184-.07-.363-.109-.547-.024-.7.023-1.41.027-2.1a25.914,25.914,0,0,1,.1-2.746,5.624,5.624,0,0,0,1.153-1.238,7.767,7.767,0,0,0,.98-2.883c.106-.59.219-1.179.317-1.769.246-1.551.461-3.1.664-4.653q.345-2.671.586-5.359c.5-2.746.964-5.5,1.429-8.254.573-3.395,1.107-6.8,1.579-10.212-1.315-.288-2.6-.6-3.848-.928-2.633-.694-5.257-1.523-7.935-2.51-.135.6-.266,1.192-.389,1.791Zm2.218,53.586c.137.054.27.105.4.152l.051.039c-.149-.066-.3-.129-.45-.191Z" transform="translate(-1125.89 -682.196)"/><path class="cls-1" d="M1258.8,1379.708a4.057,4.057,0,0,0-1.242,3.008q1.33,11.1,2.551,22.219c.652,5.97,1.423,11.93,2.235,17.883a4.278,4.278,0,0,0,.12.874q.219,1.6.442,3.2a4.041,4.041,0,0,0,1.953,2.539,4.246,4.246,0,0,0,5.812-1.524c.145-.339.285-.675.43-1.015a4.262,4.262,0,0,0,0-2.258q-.159-1.153-.314-2.305c-.043-.786-.208-1.583-.315-2.379-.543-4.039-1.07-8.078-1.543-12.129-.976-8.367-1.867-16.742-2.871-25.105-.051-.379-.1-.754-.152-1.133a4.256,4.256,0,0,0-7.106-1.875Z" transform="translate(-1125.89 -682.196)"/><path class="cls-1" d="M1258.977,1377.711c.258,3.894.676,7.773,1.117,11.652.418,3.691.785,7.383,1.133,11.078.738,7.883,1.414,15.766,2.164,23.645a4.541,4.541,0,0,0,1.246,3.008,4.259,4.259,0,0,0,6.012,0,4.089,4.089,0,0,0,1.242-3.008c-.75-7.879-1.426-15.762-2.164-23.645-.34-3.6-.691-7.195-1.1-10.789-.453-3.973-.886-7.949-1.148-11.941a4.425,4.425,0,0,0-1.242-3.008,4.254,4.254,0,0,0-7.258,3.008Z" transform="translate(-1125.89 -682.196)"/><path class="cls-1" d="M1259.479,1378.562c.141,3.375.324,6.742.586,10.113q.4,5.226.789,10.457c.531,7.109,1.32,14.187,2.246,21.258.051.379.1.754.153,1.129a4.248,4.248,0,0,0,7.1,1.875,4.03,4.03,0,0,0,1.246-3c-.91-6.946-1.695-13.9-2.215-20.883q-.391-5.25-.793-10.5c-.269-3.485-.468-6.961-.613-10.449a4.25,4.25,0,0,0-8.5,0Z" transform="translate(-1125.89 -682.196)"/><path class="cls-1" d="M1264.343,1418.143a64.3,64.3,0,0,0,.562,7.039,4.566,4.566,0,0,0,1.242,3,4.249,4.249,0,0,0,6.012,0,4.073,4.073,0,0,0,1.246-3,64.3,64.3,0,0,1-.562-7.039,4.25,4.25,0,0,0-8.5,0Z" transform="translate(-1125.89 -682.196)"/><path class="cls-1" d="M1265.615,1431.516c-.312.15-.627.3-.942.446l-.144.065-.2.094-.027.013-.293.135-.113.051-.212.1-.652.3-.106.048-.032.014a4.448,4.448,0,0,0-.831.371l-.065.029a4.278,4.278,0,0,0-.919.4l-.132.057q-2.467,1.03-4.981,1.956c-.467.172-.935.339-1.405.507l-.628.22q-.562.195-1.126.386-3.354,1.122-6.763,2.056l-.017,0-.177.048-.083.021-.636.17-.628.164c-.109.027-.218.056-.326.084l-.011,0-.563.143-.012,0q-3.206.8-6.448,1.428l-.076.014q-1.629.312-3.267.584c-.031,0-.064.009-.1.016q-1.423.226-2.855.428-1.152.149-2.306.278l-.409.045-.219.024-.044,0-1.259.125-1.281.114q-3.638.3-7.292.393l-.1,0-.209,0-.693.011-.083,0-.439.006h-.128l-.8.006h-.267c-.775,0-1.55-.007-2.323-.017h-.1l-.367-.006-.035,0q-1.48-.035-2.96-.1-5.171-.242-10.3-.892-1.344-.187-2.684-.4c-.057-.011-.115-.02-.173-.028-2.171-.357-4.331-.775-6.482-1.238-.059-.013-.119-.027-.179-.039q-.99-.224-1.977-.455l-.022,0-.291-.07-.042-.011q-3.574-.867-7.1-1.946l-.07-.02-.374-.116-.474-.149-.036-.011q-.439-.139-.878-.282l-.026-.008-.105-.034-.013-.005q-3.245-1.059-6.426-2.3l-.023-.009c-.246-.1-.493-.193-.738-.291a4.248,4.248,0,0,0-.845-.338l-.53-.216q-.574-.239-1.145-.479a4.339,4.339,0,0,0-2.262,0,4.256,4.256,0,0,0-2.969,5.23,4.07,4.07,0,0,0,1.953,2.539c.02.008.039.016.055.024.286.121.572.24.856.361a4.325,4.325,0,0,0,.96.4,4.206,4.206,0,0,0,.9.365l.069.028.383.155q.524.21,1.048.416l.094.034.156.06.088.032q2.611,1,5.268,1.9l.077.027.169.055.6.2.027.008.114.039.433.137.254.081.065.02c.053.019.107.037.162.055l.761.234h0c.05.017.1.034.152.05l.221.066q3.077.925,6.189,1.708l.1.026.13.032.46.113c.049.012.1.023.146.033l.217.052c.248.061.5.119.745.175q.552.129,1.1.251l.035.009c.073.017.147.032.22.048l.136.03.132.027q3.068.66,6.163,1.174l.056.01.066.01.176.029.145.022a137.258,137.258,0,0,0,14.359,1.534c.053,0,.107.008.161.01l.341.016.268.011.058,0q1.113.046,2.229.077l.111,0c.547.016,1.09.024,1.637.032.067,0,.133,0,.2,0,.337,0,.676.006,1.014.007.059,0,.117,0,.177,0l.506,0h.236l.105,0,.161,0,.436-.006.29,0,.138,0,.9-.016h.048l.581-.014.166-.008q3.176-.1,6.341-.345l.106-.007c.309-.027.618-.051.926-.078l.208-.02c.22-.02.438-.039.659-.062l.078-.007c.035,0,.071-.005.106-.009.316-.032.633-.064.949-.1l.035,0,.142-.016.6-.066.212-.025q3.465-.4,6.911-.948l.1-.015.028,0h.006c.03-.005.059-.008.087-.014l.063-.011q1.307-.219,2.6-.458l.1-.019.026,0,.454-.085c.043-.008.086-.018.129-.028q2.952-.579,5.876-1.289c.056-.012.112-.025.167-.039q.423-.1.846-.212l.092-.022.511-.133.075-.019.022-.006.631-.168.63-.169h0c.191-.051.386-.105.582-.16l.132-.039c1.895-.533,3.78-1.1,5.649-1.724l.082-.026.263-.089.534-.181.09-.031.023-.008c.276-.093.556-.19.833-.286l.073-.026.762-.27.07-.025.068-.025h.007c.262-.094.522-.188.781-.284.078-.029.154-.058.23-.089q2.617-.977,5.192-2.057a58.59,58.59,0,0,0,1.883-.794,4.361,4.361,0,0,0,.894-.392l.418-.186.125-.056.052-.024.071-.032.016-.007.037-.015.071-.034.034-.016.532-.239.061-.03.036-.016.039-.017.059-.028.008,0,.176-.081.039-.018.4-.184c.029-.012.057-.026.086-.04l.02-.01a.882.882,0,0,0,.089-.041l.06-.029c.34-.16.683-.32,1.026-.483a4.131,4.131,0,0,0,1.953-2.543,4.252,4.252,0,0,0-2.968-5.226,3.928,3.928,0,0,0-1.058-.146,5.126,5.126,0,0,0-2.22.576Z" transform="translate(-1125.89 -682.196)"/><path class="cls-1" d="M1266.259,1374.023a4.077,4.077,0,0,0-1.246,3q2.766,28.014,5.531,56.032a4.527,4.527,0,0,0,1.242,3,4.249,4.249,0,0,0,6.012,0,4.073,4.073,0,0,0,1.246-3q-2.766-28.014-5.531-56.032a4.527,4.527,0,0,0-1.242-3,4.249,4.249,0,0,0-6.012,0Z" transform="translate(-1125.89 -682.196)"/><path class="cls-1" d="M1155.541,1431.37c-.051.379-.1.754-.152,1.133a4.225,4.225,0,0,0,.578,2.145,4.251,4.251,0,0,0,5.816,1.523,4.052,4.052,0,0,0,1.953-2.539q3.246-23.955,6.5-47.908c-2.463-.813-4.953-1.756-7.52-2.846l-.242-.105-.317-.137-.006,0q-3.28,24.372-6.607,48.737Z" transform="translate(-1125.89 -682.196)"/><path class="cls-1" d="M1163.236,1428.459a4.282,4.282,0,0,0,0,6.008,16.361,16.361,0,0,0,3.484,2.519,14.064,14.064,0,0,0,1.809.793,4.749,4.749,0,0,0,2.16.418,4.225,4.225,0,0,0,2.144-.582,4.374,4.374,0,0,0,1.954-2.539c.007-.019.011-.039.019-.058a4.217,4.217,0,0,0-1.094-4.137,7.652,7.652,0,0,0-1.629-1.16,4.224,4.224,0,0,0-1.945-.561c-.157-.1-.312-.194-.464-.3-.144-.133-.285-.269-.426-.406a4.385,4.385,0,0,0-3.037-1.225,4.182,4.182,0,0,0-2.975,1.225Z" transform="translate(-1125.89 -682.196)"/><path class="cls-1" d="M1160.716,1427.59a4.2,4.2,0,0,0-.844,4.721,3.564,3.564,0,0,0,.168,1.1,5.43,5.43,0,0,0,1.387,2.317,10.707,10.707,0,0,0,1.793,1.359c.351.215.7.434,1.066.633.344.191.691.379,1.051.543.476.222.957.433,1.445.629a4.2,4.2,0,0,0,1.535.281,4.578,4.578,0,0,0,2.223-.613,4.1,4.1,0,0,0,1.953-2.539,4.715,4.715,0,0,0,.076-2.04c0-.04,0-.08,0-.121a4.071,4.071,0,0,0-1.246-3c-1.211-.978-2.6-1.661-3.885-2.531-.251-.233-.484-.481-.716-.735a3.944,3.944,0,0,0-2.935-1.234,4.371,4.371,0,0,0-3.073,1.234Z" transform="translate(-1125.89 -682.196)"/><path class="cls-1" d="M1161.667,1429.765a4.282,4.282,0,0,0-.367.419,4.348,4.348,0,0,0-.992,1.155,4.726,4.726,0,0,0-.59,2.226,4.037,4.037,0,0,0,1.246,3,11.136,11.136,0,0,0,1.285,1.016,10.124,10.124,0,0,0,1.571.816c.359.176.715.348,1.078.516a10.178,10.178,0,0,0,2.289.91,4.479,4.479,0,0,0,3.273-.43,4.136,4.136,0,0,0,.859-.663,4.548,4.548,0,0,0,1.305-1.391,4.219,4.219,0,0,0,.582-2.145c-.05-.379-.1-.754-.152-1.133a4.265,4.265,0,0,0-1.094-1.875,5.729,5.729,0,0,0-2.32-1.425q-.851-.366-1.713-.709c-.084-.094-.166-.191-.248-.291a4.093,4.093,0,0,0-3.008-1.247,4.253,4.253,0,0,0-3,1.247Z" transform="translate(-1125.89 -682.196)"/><path class="cls-1" d="M1159.452,1429.448a4.506,4.506,0,0,0-2.539,1.954l-.008.007a4.238,4.238,0,0,0-.578,2.149,4.455,4.455,0,0,0,1.242,3,7.443,7.443,0,0,0,1.684,1.211,16.985,16.985,0,0,0,2.516,1.2c.51.2,1.032.358,1.556.512l.573.261a16.255,16.255,0,0,0,2.118.844,14.194,14.194,0,0,0,2.565,1.078,4.253,4.253,0,1,0,2.262-8.2l-.085-.027a5.124,5.124,0,0,0-1.6-1.676,13.561,13.561,0,0,0-1.605-.931c-.138-.1-.273-.2-.407-.3-.255-.2-.51-.4-.769-.593a4.23,4.23,0,0,0-3.706-.282c-.149-.015-.287-.023-.4-.023a3.58,3.58,0,0,0-.557-.192,4.352,4.352,0,0,0-2.258,0Z" transform="translate(-1125.89 -682.196)"/><path class="cls-1" d="M1158.18,1429.123a4.3,4.3,0,0,0-1.523,5.817,7,7,0,0,0,1.948,2.121c.066.079.135.156.208.23a11.838,11.838,0,0,0,2.336,1.649,18.421,18.421,0,0,0,2.556,1.181c.039.018.078.037.116.057a6.055,6.055,0,0,0,.926.376c.448.2.9.387,1.359.573a4.1,4.1,0,0,0,3.277-.429,4.25,4.25,0,0,0,1.524-5.817c-.223-.285-.442-.574-.664-.859a4.258,4.258,0,0,0-1.812-1.075c-.833-.408-1.62-.9-2.442-1.327q-.227-.119-.456-.229l-.126-.068c-.534-.3-1.068-.613-1.583-.952a4.267,4.267,0,0,0-3.523-1.814,4.2,4.2,0,0,0-2.121.566Zm4.555,10.586c.319.134.648.256.959.406-.32-.136-.638-.273-.959-.406Z" transform="translate(-1125.89 -682.196)"/><path class="cls-2" d="M1225.263,687.715c.133.45.27.895.418,1.34a3.193,3.193,0,0,1,.18,1.344c.059.156.113.312.164.469l.063.164.058.164.039.113-.008,0,.047.125c.985,2.805,2,5.8,3.012,8.891l.051.144c.238.719.476,1.438.707,2.16l.031.1.195.6.188.605.043.121q.95,2.947,1.867,5.906c.047.137.09.274.152.485l.063.195.066.211.032.109.347,1.129.235.774.039.129.054.187.047.145.133.425.035.133q1.155,3.827,2.262,7.66l.039.137c1.133,3.938,2.254,7.985,3.324,12.024a1.566,1.566,0,0,1,.055.183c.195.731.391,1.465.59,2.266l.043.144.051.16.035.161.031.1.019.106.079.289.086.324.023.1c.918,3.535,1.8,7.047,2.633,10.48a1.048,1.048,0,0,1,.054.266l.055.195a1.774,1.774,0,0,1,.067.277l.171.692.055.226.043.231.039.109.09.391.105.441a829.682,829.682,0,0,1,18.473,115c1.629,17.727,2.789,35.434,3.707,50.414,1.235,20.243,2.07,38.8,2.559,56.731.918,34.258.66,69.23-.789,106.914,0,.047,0,.086,0,.129-1.274,32.328-3.406,67.109-6.524,106.336l-.011.125-.008.1-.113,1.274v.14c-.7,8.684-1.52,18.422-2.434,28.942-.16,1.875-.328,3.758-.5,5.633-.024.214-.043.425-.063.675l-.007.129-.336,3.739-.051.531-.047.551-.051.543-.047.543c0,.054-.008.105-.015.16-.618,6.824-1.25,13.644-1.907,20.554l-.011.118-.547,5.73-.133,1.363-.133,1.4c0,.058-.012.117-.019.175l-.067.653-.074.8a.932.932,0,0,1-.008.11q-1.206,12.433-2.469,24.863a.951.951,0,0,1-.007.113l-.641,6.25-.062.641c0,.047-.008.094-.016.141l-.012.105-.019.219-.387,3.641,0,.117-.109,1.043-.11,1.1c-.843,8.149-1.7,16.293-2.578,24.508l-.234,2.176-.031.289-.04.359-.363,3.375-.058.535-.059.532-.008.1c0,.059-.012.117-.019.172l-.036.309-.027.273-.121,1.106-.117,1.1-.113,1.043-.02.172-.129,1.172-.113,1.062-.016.141-.2,1.836-.016.141q-.7,6.351-1.4,12.7-.685,6.228-1.383,12.461l-.1.847-.085.766-.094.828a5.313,5.313,0,0,1-.117,1.051l-.079.691-.339,3.008a4.682,4.682,0,0,1-.106.945l-.058.493-.055.488-.317,2.8a5.2,5.2,0,0,1-.109.98l-.281,2.461-.281,2.461a4.294,4.294,0,0,1-.594,2.168l-.461.6-.2.261a3.977,3.977,0,0,1-1.567.977,3.506,3.506,0,0,1-.113.457l.063-.012c.086-.012.171-.023.257-.031a8.681,8.681,0,0,0,2.258-.3l.625-.082.715-.1c1.75-.239,3.5-.5,5.281-.762l.114-.016.14-.023q2.631-.4,5.27-.848l.136-.023.133-.024c4.469-.757,8.973-1.613,13.387-2.543l.152-.031.164-.035.1-.023q2.853-.617,5.7-1.27l.137-.035c3.953-.926,7.883-1.93,11.672-2.985a8.277,8.277,0,0,0,2.4-1.1,8.612,8.612,0,0,0,8.129-8.5l.047-1.238a8.836,8.836,0,0,0,2.336-5.856l.141-2.558.082-1.481a1.159,1.159,0,0,0,.007-.121c.039-.625.071-1.25.106-1.875h-.012l.02-.2c.015-.27.031-.539.043-.809.007-.074.011-.144.015-.219l.082-1.515.047-.817.043-.836.18-3.3c.015-.239.031-.473.043-.809q.105-1.893.207-3.781l.008-.2c0-.062.007-.121.007-.183q.417-7.746.817-15.488c.008-.1.016-.207.019-.309.153-2.934.3-5.863.45-8.809h-.008l.015-.125.106-2.066.105-2.172c.129-2.578.258-5.152.383-7.754,0-.035,0-.07.008-.137l.039-.769.035-.766c0-.1.008-.195.016-.289l.008-.16q.327-6.75.64-13.492a9.245,9.245,0,0,0,1.067-3.984q.164-4.331.39-8.665l.012-.164q.147-2.764.309-5.535.139-2.414.293-4.832l.007-.125,0-.125q.487-7.869,1.016-15.734.446-6.738.871-13.477c.023-.215.043-.433.055-.656,1.953-32.48,3.558-64.156,4.777-94.148,2.4-57.567,3.043-101.426,2.078-142.219l-.012-.3c-.171-7.164-.406-14.348-.695-21.355l0-.137,0-.137c-.007-.109-.011-.219-.015-.332l0-.105q-.129-2.983-.27-5.961l-.011-.274-.016-.3-.008-.132c-.769-15.864-1.887-31.7-3.32-47.067a8.6,8.6,0,0,0-.145-1.543q-.193-2.033-.394-4.066c-1.211-12.25-2.574-24.387-4.051-36.067A7.959,7.959,0,0,0,1303.1,881c-1.007-7.915-2.082-15.731-3.187-23.223a4.633,4.633,0,0,0-.094-.457c-.2-1.379-.414-2.758-.625-4.129.047-.074.09-.145.133-.219-.1-.32-.211-.644-.3-.972-.121-.465-.226-.934-.305-1.407a15.975,15.975,0,0,1-.335-3.113c-.254-1.266-.5-2.527-.68-3.812-.2-1.485-.328-2.958-.485-4.446-.109-1.031-.253-2.058-.3-3.1-.016-.375-.031-.754-.047-1.129-.012-.043-.024-.086-.031-.125-.028-.137-.047-.27-.071-.4a4.309,4.309,0,0,1-.4-1.136c-.41-2.122-.578-4.309-.793-6.473-.113-.93-.211-1.859-.309-2.793-.019-.2-.039-.41-.054-.617-.032-.254-.059-.5-.094-.758.027.18.051.363.078.543,0-.024,0-.047-.008-.074-.1-.836-.191-1.676-.293-2.512-1.3-5.438-2.566-10.461-3.832-15.293l-.117-.445-.039-.133a422.1,422.1,0,0,0-18.727-55.176,230.826,230.826,0,0,0-12.312-25.238c-.9-1.1-1.823-2.19-2.609-3.356-.364-.539-.68-1.105-1.043-1.648a10.3,10.3,0,0,1-1-2.086.72.72,0,0,1-.04-.078,9.065,9.065,0,0,1-1.656-2.129c-.172-.356-.351-.727-.554-1.082-.247-.258-.5-.508-.754-.758a8.447,8.447,0,0,1-1.383-1.8c-.067-.121-.125-.246-.192-.367-.253-.254-.527-.5-.8-.73-.133-.1-.262-.207-.387-.313h0l-.007,0h0a9.176,9.176,0,0,1-1.141-1.126c-.441-.523-.965-.972-1.406-1.5a23.472,23.472,0,0,1-2.277-2.625c-.141-.226-.274-.453-.414-.676-.075-.078-.149-.152-.223-.222a11.926,11.926,0,0,1-1.523-1.891,13.473,13.473,0,0,1-1.184-1.492c-.086-.137-.164-.278-.238-.414a9.805,9.805,0,0,1-.618-.778c-.355-.418-.671-.859-.992-1.3a10.089,10.089,0,0,0-.988-1.024c-.2-.156-.4-.312-.6-.472l.157.117a7.71,7.71,0,0,1-1-.973,7.864,7.864,0,0,0-.547-.578,19.536,19.536,0,0,1-2.438-1.9q-.187-.19-.379-.393c-.135-.032-.272-.062-.41-.088-2.234-1.98-4.625-3.918-7.316-5.922a5.385,5.385,0,0,0-1.289-.687,9.514,9.514,0,0,1,.636,1.64Z" transform="translate(-1125.89 -682.196)"/><path class="cls-2" d="M1236.431,695.036c-.015-.016-.035-.032-.05-.047l-.43-.324c.16.125.32.246.48.371Z" transform="translate(-1125.89 -682.196)"/><path class="cls-2" d="M1240.924,699.915c-.11-.145-.219-.286-.329-.426l0,0c.109.141.222.285.332.43Z" transform="translate(-1125.89 -682.196)"/><path class="cls-2" d="M1299.032,850.554c0-.012,0-.02-.007-.031-.043-.094-.086-.188-.125-.282.043.1.085.207.132.313Z" transform="translate(-1125.89 -682.196)"/><path class="cls-2" d="M1145.334,1375.253c.059.035.125.071.187.11l.008,0c.024.015.051.027.075.043l.265.148c.047.027.1.055.149.082.558.309,1.121.617,1.687.914.02.012.043.024.066.035s.075.039.114.059.078.043.121.062l.1.051c.144.074.292.152.441.227.051.027.1.05.152.074s.074.039.11.058.089.043.136.067a.677.677,0,0,0,.09.043c.051.027.1.051.153.078l.121.059c.023.011.043.023.066.035l.074.035a.229.229,0,0,1,.028.016.286.286,0,0,1,.043.019l.218.106a.673.673,0,0,0,.09.042.316.316,0,0,0,.031.016c.043.024.086.043.129.063.192.089.383.183.571.273a.31.31,0,0,0,.039.016l.375.175c.093.047.191.09.289.129a102.325,102.325,0,0,0,10.061,3.974c-1.848-.835-3.64-1.73-5.327-2.665l-.148-.082-.586-.336c-.039-.02-.082-.043-.121-.066-.871-.5-1.707-1.016-2.485-1.524l-.156-.086c-.035-.019-.07-.043-.152-.1l-.1-.067-.133-.086-.105-.07c-1.141-.75-2.262-1.547-3.324-2.367a4.269,4.269,0,0,1-1.578.308,4.327,4.327,0,0,1-3.028-1.258,4.1,4.1,0,0,1-.478-.574,4.1,4.1,0,0,0,1.736,1.957Z" transform="translate(-1125.89 -682.196)"/><path class="cls-2" d="M1241.662,1379.515l-.281,2.461a4.287,4.287,0,0,1-.594,2.168l-.461.6-.2.262a3.974,3.974,0,0,1-1.566.977,4.413,4.413,0,0,1-.192.689c.274-.027.551-.053.824-.084h.02c.066-.008.129-.015.191-.019a4.586,4.586,0,0,0,3.008-1.246,4.259,4.259,0,0,0,0-6.012,4.44,4.44,0,0,0-.661-.54l-.085.743Z" transform="translate(-1125.89 -682.196)"/><path class="cls-2" d="M1287.15,1367.808l-.187.094c-.039.015-.074.031-.109.047a.184.184,0,0,1-.036.015c-.054.028-.113.055-.172.082-.031.016-.062.028-.093.043-.606.285-1.215.559-1.828.828a4.55,4.55,0,0,0-.911.391c-.687.281-1.382.555-2.078.824-.015,0-.031.012-.047.016l-.015.008-.356.132a.146.146,0,0,1-.039.016.053.053,0,0,1-.023.008,115.6,115.6,0,0,1-15.5,4.547c-6.168,1.375-12.375,2.543-18.637,3.414-1.792.237-3.588.447-5.388.642l-.069.6-.281,2.461a4.287,4.287,0,0,1-.594,2.168l-.461.6-.2.262a3.974,3.974,0,0,1-1.566.977,4.386,4.386,0,0,1-.812,1.826c7.55-.719,15.074-1.711,22.534-3.143.2-.039.41-.082.614-.121a4.163,4.163,0,0,1,3.722-.75,130.391,130.391,0,0,0,18.9-5.285.179.179,0,0,0,.039-.016.055.055,0,0,0,.023-.007c.129-.047.25-.094.379-.145a.235.235,0,0,0,.051-.019c.035-.012.07-.028.105-.039.821-.317,1.633-.645,2.442-.981.031-.012.062-.023.089-.035.106-.043.211-.09.317-.133a4.213,4.213,0,0,0,1.016-.43q1.288-.544,2.554-1.132c.067-.028.129-.059.2-.09.046-.02.089-.043.136-.063l.176-.082c.133-.066.266-.129.4-.191a4.137,4.137,0,0,0,1.953-2.539,4.255,4.255,0,0,0-2.968-5.231,4.091,4.091,0,0,0-1.059-.144,5.158,5.158,0,0,0-2.219.574Zm-3.457,1.555-.043.019a.049.049,0,0,1-.023.008c.023-.008.043-.02.066-.027Z" transform="translate(-1125.89 -682.196)"/><path class="cls-2" d="M1288.33,1367.233c-.457.226-.918.453-1.379.672l-.021.01c-.781.371-1.57.727-2.362,1.076a4.067,4.067,0,0,0-1.953,2.539,4.247,4.247,0,0,0,2.965,5.226l1.133.153a4.225,4.225,0,0,0,2.144-.579c.817-.359,1.629-.726,2.438-1.109.03-.014.06-.03.09-.045.415-.2.825-.4,1.234-.6a4.251,4.251,0,0,0-1.016-7.77,4.022,4.022,0,0,0-1.07-.146,4.907,4.907,0,0,0-2.2.576Z" transform="translate(-1125.89 -682.196)"/><path class="cls-2" d="M1284.751,1355.849a13.422,13.422,0,0,0,.207,3.176q.076.432.146.864c.049.585.059,1.175.108,1.761.059.668.141,1.336.25,2a3.784,3.784,0,0,0,.264.86q0,.2.006.4c.011.57.055,1.116.12,1.674-.016-.125-.033-.249-.05-.373.125,1,.18,2,.317,3-.051-.375-.1-.754-.149-1.129a16.707,16.707,0,0,0,.5,3.207c.164.492.4,1.008.6,1.469a4.329,4.329,0,0,0,2.66,2.125,4.253,4.253,0,0,0,3.445-.461,4.379,4.379,0,0,0,1.126-.97l-.04.052.053-.066.092-.115a4.911,4.911,0,0,0,.715-.995c.21-.461.414-.918.613-1.394a7.754,7.754,0,0,0,.324-1.309,27.253,27.253,0,0,0,.325-2.864c.117-.8.245-1.592.349-2.39.08-.553.165-1.108.279-1.652a4.45,4.45,0,0,0-.43-3.277,4.267,4.267,0,0,0-2.539-1.953,3.964,3.964,0,0,0-.79-.132l-.031-.183c-.018-.443.008-.887.028-1.33a4.25,4.25,0,0,0-8.5,0Zm3.332,9.41c-.024.176-.045.351-.065.526q-.046.3-.087.6c.051-.375.1-.754.152-1.129Zm8.253,1.83-.036.27c-.014.1-.027.2-.041.3q.038-.285.077-.572Z" transform="translate(-1125.89 -682.196)"/><path class="cls-2" d="M1243.217,1365.769l-.094.828a5.321,5.321,0,0,1-.117,1.051l-.078.691-.34,3.008a4.611,4.611,0,0,1-.106.945l-.058.493-.055.488-.316,2.8a5.134,5.134,0,0,1-.11.98l-.167,1.468a8.338,8.338,0,0,0,1.269-1.046,8.555,8.555,0,0,0,2.461-6.055,8.327,8.327,0,0,0-2.275-5.781l-.014.129Z" transform="translate(-1125.89 -682.196)"/><path class="cls-1" d="M1259.354,1387.015a4.239,4.239,0,0,0-.8.84,3.427,3.427,0,0,0-.8.172c-.922.32-1.879.59-2.8.847l-.238.067c-.406.113-.809.238-1.215.363a20.129,20.129,0,0,1-2.918.734c-1.437.215-2.875.54-4.266.852-1.187.27-2.418.547-3.636.754-1.254.137-2.621.254-4.188.359-.336.024-.672.032-1.008.032-.3,0-.605-.008-.906-.012l-.66-.012q-1.518-.006-3.027-.027c-1.5-.024-3.035-.117-4.512-.207-.566-.035-1.133-.071-1.7-.1-.856-.047-1.715-.058-2.57-.066-1.024-.012-2.079-.028-3.118-.106-2.015-.152-4-.172-5.668-.172-.7,0-1.4,0-2.1.008h-.141l-.605,0-1.344,0h-.461c-.492,0-.981,0-1.473,0h-1.015a79.951,79.951,0,0,1-8.848-.359l-1.027-.157c-.392-.058-.784-.118-1.176-.174-3.175-.24-6.3-.571-9.363-.994a105.663,105.663,0,0,1-12.551-2.464l-.3-.08a6.145,6.145,0,0,0-.449,1.857c-.067.594-.133,1.187-.2,1.785l-.012.113-.016.11a4.151,4.151,0,0,0-.132.918c-.106.691-.223,1.382-.344,2.074a6.332,6.332,0,0,0-.321,1.562l-.019.2-.02.195c-.281,1.484-.589,2.961-.894,4.441-.332,1.614-.664,3.223-.973,4.84a4.475,4.475,0,0,0,.426,3.27l-.309,3.078q-.187,1.916-.386,3.832a4.04,4.04,0,0,0-.8,2.465c.023,1.425-.028,2.851-.082,4.195a22.129,22.129,0,0,0-.192,2.582c0,.133,0,.262.016.395a4.074,4.074,0,0,0-.7,2.312q.017,1.389.039,2.777a4.259,4.259,0,0,0,.031,1.633c0,.2.008.4.016.6a8.194,8.194,0,0,0,.2,1.691,4.487,4.487,0,0,0,2,2.574,3.454,3.454,0,0,0,1.453.54.519.519,0,0,0,.031.148,4.111,4.111,0,0,0,1.957,2.547c1.051.5,2.122.976,3.274,1.461l.234.1a15.2,15.2,0,0,0,1.731.649c1.269.367,2.445.668,3.6.926a29.487,29.487,0,0,0,4.274.519c.633.043,1.265.09,1.894.152l1.258.133c1.34.141,2.727.285,4.094.364,3.683.21,7.281.476,11.269.773,1.938.145,4,.293,6.067.34,2,.047,4,.051,6,.055s4,0,5.992,0h5.988a77.851,77.851,0,0,0,10.742-1l.735-.1c.488-.055.973-.1,1.461-.145.562-.054,1.125-.1,1.683-.175q1.441-.181,2.879-.368l.59-.07a19.691,19.691,0,0,0,2.6-.422l1.363-.351,1.367-.352c.348-.09.7-.168,1.051-.246.469-.1.937-.207,1.4-.336a18.856,18.856,0,0,0,2.489-.918c.574-.234,1.144-.473,1.715-.719a20.484,20.484,0,0,0,3.785-1.925l.132,0a3.8,3.8,0,0,0,1.239-.208,9.085,9.085,0,0,0,1.668-.75,7,7,0,0,0,3.351-3.832,4.1,4.1,0,0,0,.168-1.175l.067-.133.043-.094a3.838,3.838,0,0,0,.683-1.422,10.987,10.987,0,0,0,.2-1.922l.028-.488a3.691,3.691,0,0,0-.5-2.039c-.043-.551-.094-1.1-.149-1.656a7.4,7.4,0,0,0,.012-4.629,12.206,12.206,0,0,0-.832-2.418c-.469-4.039-.769-8.2-1.031-11.871-.234-3.27-.524-6.594-.805-9.805l-.336-3.949a4.636,4.636,0,0,0-.976-2.7l.019-.637.02-.57a4.041,4.041,0,0,0-1.18-2.926,4.343,4.343,0,0,0-3.082-1.336,4.259,4.259,0,0,0-4.144,3.375Z" transform="translate(-1125.89 -682.196)"/><path class="cls-1" d="M1262.76,1381.011c-.074.02-.149.035-.223.051-.016,0-.027,0-.039.008a.849.849,0,0,1-.086.019c-.043.012-.082.02-.125.031l-.058.012c-.032.008-.059.012-.086.02l-.161.035c-.007,0-.019,0-.027.008-.168.039-.34.074-.5.113-.629.141-1.262.281-1.894.418l-.051.012-.074.015-.164.035c-.024,0-.043.012-.067.016l-.117.024-.109.023c-.024,0-.043.012-.067.016-.086.019-.172.035-.254.054l-.054.012c-.028.008-.055.012-.086.02l-.118.023c-.007,0-.015,0-.023,0-.551.121-1.105.234-1.66.348-.027,0-.055.011-.082.015-.184.035-.367.074-.551.113-.008,0-.012,0-.016,0-.062.012-.125.024-.187.039-.027,0-.059.012-.086.016-.051.008-.105.02-.156.031-.555.11-1.114.219-1.672.324a.173.173,0,0,0-.02,0c-.031,0-.058.012-.089.016a1.254,1.254,0,0,1-.133.027c-.008,0-.012,0-.016,0-.051.008-.1.02-.156.028-.031.007-.067.011-.1.019-3.168.6-6.347,1.113-9.539,1.555q-1.884.249-3.771.461l-.018.023a3.974,3.974,0,0,1-1.566.977,4.3,4.3,0,0,1-3.086,3.363c-.375.051-.754.1-1.129.148l-.18.024-.273.031c-1.473.184-2.946.348-4.489.508l-.152.016-.113.011-.192.02-.14.015-.137.012a1,1,0,0,1-.105.008h0c-1.016.1-2.032.191-3.129.285l-.133.012-.137.012-.129.011c-1,.078-1.992.153-3.074.227l-.4.027-.4.028-.133.007c-1.039.063-2.078.121-3.113.168-.1.008-.2.012-.305.016l-.507.021a4.337,4.337,0,0,0,4.187,3.518c1.7.051,3.4.066,5.106.035h.058c.59-.012,1.18-.027,1.774-.051h.035a.758.758,0,0,0,.082,0c1.695-.063,3.39-.165,5.078-.3l.242-.024c.649-.054,1.3-.113,1.949-.176a.142.142,0,0,1,.035,0c.063,0,.122-.012.188-.02,6.66-.656,13.3-1.527,19.875-2.766l.059-.011.058-.012c.051-.008.1-.016.156-.027l.188-.036c.012,0,.023,0,.035-.007s.024,0,.035-.008c.5-.1,1.012-.2,1.52-.3.031-.008.062-.012.1-.02s.063-.011.1-.019.063-.012.1-.02c.09-.019.179-.035.273-.054h0l.4-.082.161-.036.011,0q.851-.171,1.7-.352l.054-.012c.051-.008.1-.019.149-.031l.281-.059c.047-.011.1-.019.148-.031l.106-.023.054-.012c.043-.008.086-.02.129-.027l.164-.035c.008,0,.02,0,.028-.008a.9.9,0,0,0,.1-.02c.582-.129,1.172-.262,1.758-.39.047-.012.094-.02.145-.032l.07-.015c.02,0,.039-.012.059-.016l.062-.012.574-.129.1-.023.105-.023a.407.407,0,0,1,.067-.016.105.105,0,0,1,.035-.008c.008,0,.016,0,.027-.008a.118.118,0,0,1,.039-.008c.051-.015.106-.027.16-.039a4.232,4.232,0,0,0-1.207-8.316,4.646,4.646,0,0,0-1.054.121Z" transform="translate(-1125.89 -682.196)"/><path class="cls-1" d="M1184.529,1389.73a73.445,73.445,0,0,0,17.242,2.8,99.686,99.686,0,0,0,11.825-.1c.043,0,.09,0,.133-.008q2.026-.139,4.042-.336a4.534,4.534,0,0,0,3.008-1.246c.028-.025.054-.052.081-.08-.984.059-1.968.114-2.948.158-.1.008-.2.012-.305.016q-1.347.059-2.7.1c-.05,0-.1.007-.156.007-1.84.051-3.613.078-5.273.078a159.434,159.434,0,0,1-21.707-1.453c-1.652-.23-3.239-.481-4.774-.756a4.368,4.368,0,0,0,1.535.819Z" transform="translate(-1125.89 -682.196)"/><path class="cls-2" d="M1257.467,1368.745l-.125.036c-4.937,1.306-9.89,2.539-14.874,3.635l-.044.369-.055.488-.316,2.8a5.134,5.134,0,0,1-.11.98l-.281,2.461-.207,1.812c6.133-1.269,12.219-2.783,18.274-4.386a4.244,4.244,0,0,0-1.168-8.336,4.407,4.407,0,0,0-1.094.14Z" transform="translate(-1125.89 -682.196)"/><path class="cls-2" d="M1260.248,1369.5c-5.956,1.607-11.933,3.129-17.955,4.448l-.24,2.123a5.134,5.134,0,0,1-.11.98l-.281,2.461-.281,2.461a4.412,4.412,0,0,1-.093.878c.168-.034.339-.067.507-.105,6.957-1.441,13.851-3.2,20.711-5.046a4.253,4.253,0,0,0-2.258-8.2Z" transform="translate(-1125.89 -682.196)"/><path class="cls-2" d="M1266.189,1368.824c-7.961,2.259-15.966,4.46-24.032,6.33l-.1.92a5.134,5.134,0,0,1-.11.98l-.281,2.461-.281,2.461a4.287,4.287,0,0,1-.594,2.168l0,0c9.3-2.023,18.506-4.527,27.664-7.13a4.25,4.25,0,0,0-1.152-8.348,3.982,3.982,0,0,0-1.106.153Z" transform="translate(-1125.89 -682.196)"/><path class="cls-2" d="M1264.951,1375.249c-.43.1-.863.2-1.3.3a.441.441,0,0,1-.07.016,1.012,1.012,0,0,1-.105.027c-.008,0-.02,0-.028,0s-.039.012-.055.016a.154.154,0,0,1-.042.007c-.043.008-.086.02-.129.028l-.829.187c-.023.008-.05.012-.078.02-.07.015-.144.035-.214.051-.18.039-.36.082-.54.117-.043.012-.082.023-.125.031-.9.2-1.8.4-2.71.594l-.09.023h-.012c-.07.016-.141.032-.215.047-.027,0-.055.012-.082.016a.437.437,0,0,1-.07.015c-.078.02-.156.036-.231.051s-.172.039-.258.055c-.05.012-.1.023-.152.031a.489.489,0,0,1-.074.016c-.008,0-.016,0-.027.008q-7.9,1.678-15.891,2.914l-.246,2.152a4.287,4.287,0,0,1-.594,2.168l-.461.6-.2.262a3.974,3.974,0,0,1-1.566.977,4.282,4.282,0,0,1-2.455,3.131q3.165-.411,6.318-.873c5.769-.836,11.5-1.9,17.207-3.106.059-.012.117-.019.176-.035l.554-.117c.039-.008.082-.02.125-.028l.11-.023c.1-.02.2-.043.3-.066a.772.772,0,0,0,.093-.02c.918-.2,1.832-.4,2.746-.605a.748.748,0,0,0,.094-.02l.153-.035a.185.185,0,0,0,.046-.008c.063-.016.125-.031.192-.043.008,0,.015,0,.023-.008.137-.027.274-.058.406-.09l.012,0c.235-.051.473-.106.707-.161.129-.031.258-.058.387-.089.008,0,.016,0,.027,0l0,0h.008c.008,0,.02,0,.027-.008l.016,0c.461-.1.918-.211,1.379-.32a4.233,4.233,0,0,0-1.2-8.317,4.715,4.715,0,0,0-1.059.121Z" transform="translate(-1125.89 -682.196)"/><path class="cls-2" d="M1217.432,682.2h0a5.976,5.976,0,0,0-.887.081l-.427.06a2.694,2.694,0,0,0-.812.29c-.161.04-.271.06-.375.078a4.559,4.559,0,0,0-.741.176,7.382,7.382,0,0,0-3.837,2.738c-1.529,1.087-3.06,2.193-4.572,3.318l-.119.088c-1.122.835-2.282,1.7-3.358,2.619a13.668,13.668,0,0,0-2.615,2.776,3.189,3.189,0,0,0-.18.3,3.3,3.3,0,0,0-1.7,1.042c-2.259,2.87-4.289,5.553-6.208,8.2l-.062.082-.059.086c-.078.106-.149.2-.219.309s-.168.222-.25.344c-1.449,2.027-2.846,4.046-4.152,6l-.078.113-.106.156-.105.161-1.028,1.55-.074.114-.375.578-.07.1-.2.317-.2.316-.2.313c-1.279,1.99-2.623,4.156-3.993,6.437l-.055.09q-.585.98-1.164,1.961l-.082.145c-1.878,3.217-3.671,6.435-5.328,9.567l-.063.113q-.551,1.043-1.09,2.09l-.066.121-.211.414-.215.418c-1.132,2.207-2.3,4.568-3.472,7.02l-.208.429-.371.786c-.032.068-.063.134-.09.2l-.214.457-.215.453-.211.453-.082.176-.047.1-.043.1c-1.165,2.516-2.4,5.317-3.789,8.563l-.047.105-.25.59-.23.551q-.534,1.266-1.055,2.52a4.47,4.47,0,0,0-.4.989l-.058.136-.074.195-.176.426-.059.144-.047.126-.082.191-.086.215-.257.644-.1.25-.047.113-.156.4-.047.121-.043.113c-.051.117-.1.235-.145.356l-.043.105-.054.141-.27.691-.262.68-.242.621-.066.176-.282.727-.195.511-.035.11-.551,1.457-.078.2-.074.207-.184.488-.171.477-.051.133-.051.132c-.983,2.684-1.886,5.247-2.844,8.067l-.082.238-.066.2-.047.14c-.881,2.624-1.708,5.175-2.457,7.582l-.039.114c-.984,3.162-1.906,6.258-2.739,9.2a1.589,1.589,0,0,0-.051.156c-1,3.551-1.967,7.123-2.859,10.618l-.113.449c-1.007,3.973-1.944,7.887-2.786,11.633h0s-.012.022-.031.11l-.015.125q-.786,3.44-1.512,6.894l-.016.161-.172.777-.164.765c-.047.239-.093.469-.144.7l-.028.161c-.5,2.441-.972,4.9-1.433,7.355l-.106.543-.035.211-.027.145-.051.285-.074.4-.067.34-.093.512-.082.449c-.024.129-.047.258-.067.387-.031.16-.058.32-.086.484l-.043.227q-.662,3.726-1.277,7.469l-.023.109-.1.649-.063.378-.113.684c-.012.074-.023.153-.031.227a.866.866,0,0,0-.016.1l-.035.21-.117.719c-.008.058-.016.117-.027.171-.336,2.165-.661,4.3-.973,6.434l-.106.735-.05.344-.035.25-.106.765-.109.766-.024.188-.027.187c-.363,2.617-.707,5.18-1.035,7.742a4.449,4.449,0,0,0-.137,1.068,5.045,5.045,0,0,0-.137,1.1,5.451,5.451,0,0,0-.137,1.106,5.591,5.591,0,0,0-.132,1.1l-.031.273-.032.265,0,.13q-.434,3.538-.808,7.089l-.039.375-.032.3-.023.215-.012.105-.015.121-.024.247-.023.222-.047.457-.012.106,0,.107c-.035.2-.055.4-.074.612l-.031.3-.012.126-.012.117c-.019.179-.039.359-.055.539l-.027.25c-.269,2.719-.516,5.359-.742,8l-.02.167-.035.43-.047.563,0,.145-.081.851-.008.117-.016.164-.039.488-.039.458c-.219,2.7-.418,5.343-.6,7.988l0,.11-.039.574-.039.539.008.1-.019.107-.129,1.919c-.008.152-.012.226-.02.3l-.012.278-.007.156-.015.243-.243,3.976a3.83,3.83,0,0,0,.94,2.679l-.03.2-.023.219c-.423,4.518-.833,9.294-1.219,14.195-.008.067-.012.129-.016.192l-.027.387-.028.32,0,.118c-.031.221-.047.444-.062.671l-.141,1.84-.008.125-.054.789-.028.355-.015.2-.11,1.586-.066.911a1.189,1.189,0,0,0-.008.121c-.023.308-.043.617-.062.929q-.159,2.356-.309,4.711l-.035.571-.012.168-.012.16-.062.98-.152,2.426a.9.9,0,0,0,0,.1q-.341,5.438-.657,10.879l-.039.738-.043.711-.1,1.758-.094,1.636a.975.975,0,0,0,0,.11q-.329,5.935-.625,11.871l.008.114-.035.464-.024.465a1,1,0,0,0,0,.11l-.082,1.722-.058,1.191,0,.172-.012.187-.043.973-.043.918c-.164,3.61-.316,7.168-.457,10.727-.008.14-.012.281-.015.422a1.143,1.143,0,0,0,0,.117l-.028.7c-.019.493-.039.985-.054,1.477l-.039,1.058-.04,1.036-.011.371-.032.89q-.187,5.321-.335,10.633l-.094,3.6,0,.109-.012.453c-.019.743-.039,1.485-.055,2.227v.129q-.128,5.361-.21,10.719l0,.41c-.008.32-.012.637-.016.957v.113q-.03,1.887-.051,3.774l-.011,1.156c-.04,3.965-.067,7.9-.079,11.84v4.91c0,.438,0,.879,0,1.317.012,3.863.035,7.675.078,11.484,0,.324,0,.582.008.84l0,.379,0,.3,0,.3v.117l.016,1.012.011,1.008.008.309,0,.48.012.848c.066,4.531.156,8.957.261,13.391l.012.106c0,.628.016,1.257.035,1.89l.012.554.016.567.015.554c0,.079,0,.157.008.24l.016.678.008.313.019.617.012.508.035,1.277q.182,6.288.414,12.575c0,.038,0,.09,0,.137l.016.378.011.379c.016.309.028.621.039.934l0,.109,0,.179.043,1.044.035.98.028.641c.015.48.035.945.054,1.41a1.1,1.1,0,0,0,0,.114l.082,1.98q.288,6.9.629,13.773c0,.04,0,.076.007.116l.021.124a4.389,4.389,0,0,0,1.245,3.118c.072,5.423.176,11.134.3,16.966,0,.043,0,.09,0,.134,0,.144,0,.187,0,.23l.055,2.211.047,2.113c0,.043,0,.09,0,.133l.015.157.016,1.034.023,1c.125,4.855.262,9.644.414,14.434,0,.039,0,.086,0,.133l.024.683.011.4.039,1.145.036,1.14c.007.27.015.532.027.8a.853.853,0,0,0,0,.1q.041,1.34.094,2.675c.241,6.9.528,14.276.851,21.91,0,.043,0,.084.007.127.342,7.879.745,16.409,1.2,25.361.415,8.055.877,16.477,1.414,25.746l.137,2.286.016.257,0,.1.008.1,0,.1.02.111c.011.447.039.9.066,1.342l.027.434.028.449.066,1.066c.035.61.071,1.211.11,1.821l.1,1.715.1,1.668c0,.046,0,.1.008.152q.591,9.661,1.23,19.328l.023.344.047.7.024.177c.613,9.407,1.283,19.162,2.109,30.7l.07.953.016.227.039.535c.035.524.073,1.048.111,1.572l.1,1.373.031.391.028.391.129,1.75c.039.566.082,1.136.125,1.7l.043.531.256,3.464.275,3.723.027.375c0,.039,0,.082.008.122.488,6.515.98,12.98,1.484,19.441.051.609.1,1.18.137,1.746l.133,1.656.156,2.028.035.386q.2,2.584.407,5.172.668,8.367,1.351,16.727a4.518,4.518,0,0,0,1.257,3.022,4.316,4.316,0,0,0,3.027,1.257,4.259,4.259,0,0,0,1.578-.306c1.063.819,2.184,1.616,3.322,2.366l.106.071.133.086.1.066c.084.056.118.079.153.1l.156.086c.78.508,1.616,1.02,2.485,1.523.039.024.082.047.121.067l.586.336.148.082c1.842,1.018,3.8,1.991,5.833,2.891l.328.144.317.137.242.106a91.29,91.29,0,0,0,12.505,4.324,106.511,106.511,0,0,0,12.548,2.462,158.984,158.984,0,0,0,21.709,1.453c1.661,0,3.435-.026,5.273-.078.055,0,.106,0,.157-.008q1.353-.042,2.7-.1c.1,0,.2-.008.305-.015,1.035-.047,2.074-.106,3.113-.168l.133-.008.394-.027.4-.028c1.082-.074,2.078-.148,3.074-.226l.129-.012.137-.012.133-.012c1.1-.093,2.113-.187,3.129-.285h0a1,1,0,0,0,.108-.008l.137-.011.141-.016.191-.02.113-.011.152-.016c1.544-.16,3.016-.324,4.489-.508l.273-.031.18-.023c.375-.047.754-.1,1.129-.149a4.3,4.3,0,0,0,3.083-3.359,3.989,3.989,0,0,0,1.567-.98l.2-.262.461-.6a4.3,4.3,0,0,0,.592-2.166l.281-2.46.282-2.461a4.989,4.989,0,0,0,.109-.981l.316-2.8.055-.488.059-.493a4.63,4.63,0,0,0,.105-.946l.34-3.007.078-.691a5.338,5.338,0,0,0,.117-1.052l.094-.827.086-.766.1-.847q.7-6.23,1.382-12.461.7-6.347,1.4-12.7l.016-.141.2-1.836.015-.141.114-1.062.128-1.172.02-.172.113-1.043.117-1.1.122-1.106.027-.273.035-.309c.008-.054.016-.113.02-.172l.008-.1.058-.531.059-.535.363-3.375.039-.359.031-.289.235-2.176c.878-8.215,1.734-16.359,2.578-24.508l.112-1.1.107-1.042,0-.118.387-3.64.02-.219.011-.105c.008-.047.012-.094.016-.141l.063-.641.64-6.25a.955.955,0,0,0,.008-.114q1.26-12.42,2.469-24.862a.965.965,0,0,0,.008-.111l.074-.8.066-.653c.008-.058.016-.117.02-.176l.133-1.4.132-1.363.547-5.731.012-.117c.656-6.91,1.289-13.73,1.906-20.555.008-.054.012-.105.016-.16l.047-.543.05-.543.047-.551.051-.531.336-3.738.008-.129c.019-.25.039-.461.062-.675.168-1.876.336-3.758.5-5.633.918-10.52,1.737-20.257,2.434-28.942v-.141l.113-1.273.008-.1.012-.124c3.119-39.227,5.253-74.01,6.523-106.337,0-.043,0-.082,0-.129,1.449-37.683,1.707-72.655.789-106.914-.485-17.933-1.322-36.49-2.558-56.731-.917-14.982-2.075-32.687-3.707-50.415a829.5,829.5,0,0,0-18.469-114.993l-.106-.442-.09-.39-.039-.111-.046-.229-.051-.227-.172-.691a2.165,2.165,0,0,0-.067-.278l-.054-.195a1.38,1.38,0,0,0-.056-.267c-.833-3.434-1.715-6.946-2.632-10.479l-.024-.1-.085-.325-.078-.289-.024-.105-.027-.1-.035-.16-.051-.161-.043-.144c-.2-.8-.395-1.535-.59-2.266a1.539,1.539,0,0,0-.055-.184c-1.073-4.041-2.191-8.087-3.324-12.023l-.039-.137q-1.113-3.831-2.262-7.66l-.035-.132-.133-.427-.047-.144-.054-.187-.039-.129-.235-.774-.347-1.129-.032-.109-.066-.211-.063-.2c-.062-.21-.105-.347-.152-.484q-.913-2.96-1.867-5.906l-.043-.122-.188-.605-.195-.6-.031-.1c-.231-.723-.469-1.441-.707-2.16l-.051-.145c-1.017-3.1-2.031-6.087-3.012-8.89l-.048-.126.009,0-.039-.114-.058-.164-.063-.164c-.051-.156-.105-.312-.164-.469a3.261,3.261,0,0,0-.18-1.343c-.148-.445-.285-.891-.418-1.34a6.664,6.664,0,0,0-2.754-4.033,4.562,4.562,0,0,0-1.487-.6,8.9,8.9,0,0,0-1.151-.511l-.133-.051a6.038,6.038,0,0,0-1.893-.308l-.165-.009-.25-.008Zm1.182,244.778.066-.79-.028.784-.038.006Z" transform="translate(-1125.89 -682.196)"/></svg>