<svg xmlns="http://www.w3.org/2000/svg" viewBox="0 0 272.36 272.36"><defs><style>.cls-1{isolation:isolate;}.cls-2{fill:#d0d0d8;opacity:0.1;}.cls-3{opacity:0.2;}.cls-4{opacity:0.3;}.cls-5{fill:#469ec1;}.cls-6{fill:#479354;}.cls-7{fill:#dfeae1;}.cls-8{fill:#75b7cc;opacity:0.32;}.cls-9{mix-blend-mode:soft-light;}.cls-10{fill:#fff;}</style></defs><title>earth</title><g class="cls-1"><g id="Layer_1" data-name="Layer 1"><circle class="cls-2" cx="136.18" cy="136.18" r="136.18"/><circle class="cls-3" cx="136.18" cy="136.18" r="125.41"/><circle class="cls-4" cx="136.18" cy="136.18" r="114.65"/><circle class="cls-5" cx="136.27" cy="136.18" r="103.88"/><path class="cls-6" d="M118.83,246.5l3.06-2a30.36,30.36,0,0,1,.36-11.48l-11.49-5.5a18.71,18.71,0,0,1,20.82-7.42c4-1.08,13.86-4.38,20.33-13.87a32,32,0,0,0,3.83-7.66c-1.54-.74-13.24-6.63-15.31-18.9a23.24,23.24,0,0,1,.72-10.53c-3.08-3.24-6.5-6.62-10.29-10-4-3.57-7.81-6.75-11.48-9.57q-9.75,2.89-19.86,6.22-6.08,2-12,4.06c.09,4.4-.53,11.59-5.14,17.95-5.34,7.34-14.61,11.65-25.25,12.08a104.08,104.08,0,0,0,61.66,56.7Z" transform="translate(-16.1 -12)"/><polygon class="cls-6" points="161.41 159.74 173.38 161.17 185.61 162.85 190.9 157.1 190.9 149 185.34 149 175.53 153.41 163.81 154.9 161.41 159.74"/><path class="cls-6" d="M237.86,89.16a103.87,103.87,0,0,0-20.51-22,107.54,107.54,0,0,0-34.58,4.39c1.59.74,6.58,3.3,8.62,8.85a14.23,14.23,0,0,1,.83,4.07,8.2,8.2,0,0,1-.12,5.5,8.81,8.81,0,0,1-6,5,55.36,55.36,0,0,0,17,10.77,52.1,52.1,0,0,0,5.74,1.91,30.53,30.53,0,0,1,20.1,2.87,22,22,0,0,0-.24,13.64c2.65-3.48,6.41-5.08,9.33-4.07a5.89,5.89,0,0,1,2.63,1.92,72.64,72.64,0,0,0,1.19,8.13,73.85,73.85,0,0,0,2.4,8.85,28.62,28.62,0,0,1,10-4.54c.35-.09.69-.16,1-.22A103.43,103.43,0,0,0,237.86,89.16Z" transform="translate(-16.1 -12)"/><path class="cls-6" d="M125.84,112.41c-.9.54-2.4,1.43-2.4,2.63,0,1.88,3.75,3.69,6.94,3.59a5.79,5.79,0,0,0,4.07-1.44c1.26-1.21,2.16-3.38,1.43-4.78C134.67,110.08,129.24,110.37,125.84,112.41Z" transform="translate(-16.1 -12)"/><path class="cls-6" d="M183.73,123.65c-1.56-.18-1.82,3.25-5.5,5.74s-6.82,1.6-6.94,2.63c-.15,1.24,4.45,3.82,8.85,2.87.75-.16,4.59-1,5.74-4.3C186.93,127.57,185.31,123.83,183.73,123.65Z" transform="translate(-16.1 -12)"/><path class="cls-6" d="M50.38,168c.33.21.68.42,1,.62a12.63,12.63,0,0,0,7.66,1.19l5.74-7.65,8.85-7.66a11,11,0,0,1,3.11-8.13,11.25,11.25,0,0,1,9.57-2.87,75.22,75.22,0,0,0,7.9-.24,73.23,73.23,0,0,0,10.52-1.68l4.79-2.87,3.59-5.26-15.08-9.33L86.84,126,83,121.5l-9.33,3.11a13.22,13.22,0,0,1-4.3,1A13.48,13.48,0,0,1,62.45,124a18.22,18.22,0,0,0-2.88,5.15,18.48,18.48,0,0,0-.71,9.81c-1.28-1.29-2.56-2.57-3.83-3.86L49.09,137A103.88,103.88,0,0,0,50.38,168Z" transform="translate(-16.1 -12)"/><path class="cls-7" d="M195.18,53.52a104.12,104.12,0,0,0-75.53-4,15.66,15.66,0,0,1,7.44,6.69,13.27,13.27,0,0,1,1.08,2.69A48.08,48.08,0,0,0,137,57.68a8.91,8.91,0,0,1,5-.18l.54.18a24.57,24.57,0,0,0,11.84,5.92,23.75,23.75,0,0,0,7.54.18A14.8,14.8,0,0,1,171.59,60a13.37,13.37,0,0,1,2.69.36l5.38-.54,11.13-1.07Q193,56.14,195.18,53.52Z" transform="translate(-16.1 -12)"/><path class="cls-7" d="M178.4,248.78a8.59,8.59,0,0,0-.65-3.12,8.93,8.93,0,0,0-4.31-4.55c-4.1,0-6.4,1.22-7.77,2.4-.76.65-1.54,1.52-2.51,1.43-1.14-.1-1.92-1.81-2.4-3.23-3.44,2.24-5.16,2.26-6.1,1.68a7.36,7.36,0,0,1-.89-.84,6.41,6.41,0,0,0-4.79-1.26c-3.48,2.87-4.95,3.26-5.56,2.81s-.44-1.35-.9-1.43-1,.83-1.44,1.7a5.25,5.25,0,0,0-2.39-1.34c-1.27-.31-2.12.06-3.43.18a10.44,10.44,0,0,1-4.49-.63L127.24,249A104.13,104.13,0,0,0,178.4,248.78Z" transform="translate(-16.1 -12)"/><path class="cls-8" d="M256.08,141.8c-.05-.84-.11-1.67-.18-2.5a103.51,103.51,0,0,0-3.61-19.85c-.24-.82-.48-1.64-.73-2.45-.77-2.44-1.62-4.86-2.57-7.26-.64-1.6-1.31-3.18-2-4.76a103.93,103.93,0,0,0-4.83-9.3q-2-3.44-4.29-6.75c-.58-.84-1.17-1.67-1.77-2.48l-.57-.76c-.42-.56-.84-1.12-1.27-1.67l-.66-.84c-.43-.54-.87-1.07-1.31-1.6l-.62-.75c-.56-.66-1.12-1.31-1.69-2l-.27-.3c-.66-.74-1.33-1.47-2-2.19l-.56-.58c-.51-.52-1-1-1.52-1.55-.24-.23-.48-.46-.71-.7l-1.48-1.41-.69-.65q-.88-.81-1.77-1.59l-.42-.37c-.74-.65-1.49-1.28-2.25-1.9l-.48-.39c-.6-.49-1.2-1-1.81-1.44l-.73-.55L213.59,64l-.75-.54c-.61-.44-1.23-.87-1.85-1.3l-.53-.36c-.81-.55-1.63-1.09-2.46-1.61l-.3-.19c-.72-.45-1.43-.89-2.16-1.32l-.73-.42c-.6-.36-1.2-.7-1.81-1l-.78-.43-1.93-1-.63-.32q-2.58-1.32-5.22-2.49l-.72-.31-1.94-.82-.84-.34L189,50.75c-.25-.09-.49,0-.74,0a8.08,8.08,0,0,0-2.69-.71h0c-.91,0-1.83-.84-2.75-1.12-.24-.07-.48-.26-.72-.34-.68-.2-1.35-.45-2-.64-.3-.08-.6-.19-.9-.27-.64-.18-1.29-.36-1.94-.52-.29-.07-.57-.15-.86-.21-.78-.19-1.57-.37-2.35-.54l-.42-.09c-.94-.2-1.87-.38-2.81-.55l-.7-.12c-.7-.12-1.4-.24-2.1-.34l-1-.14c-.64-.1-1.28-.18-1.92-.26l-.95-.12L162,44.52l-.69-.07q-1.41-.12-2.82-.21l-.64,0-2.2-.1-1,0c-.64,0-1.28-.06-1.92-.06h-.93c-1.12,0-2.24,0-3.35.09-.15,0-.29,0-.44,0-1,0-2,.11-3,.18l-.8.06c-1.11.08-2.22.19-3.33.31l-.58.07c-1,.11-1.93.23-2.9.37l-.79.12c-1.09.16-2.19.35-3.29.55l-.68.13c-.94.18-1.88.38-2.82.58l-.75.17c-1.09.24-2.17.51-3.25.79l-.75.21c-.93.25-1.85.51-2.77.79l-.69.21c-1.07.33-2.14.68-3.2,1l-.79.28c-.92.33-1.85.67-2.77,1l-.59.22c-1,.42-2.11.85-3.15,1.31l-.79.34c-1,.42-1.88.85-2.82,1.3l-.44.2c-1,.51-2.08,1-3.11,1.58l-.76.41c-1,.52-2,1.06-2.91,1.61l-.24.14Q98.51,59,97,60l-.74.47c-1,.65-2,1.31-3,2A105,105,0,0,0,75.41,78c-1.16,1.27-2.28,2.57-3.37,3.88s-2.14,2.66-3.16,4c-.5.68-1,1.37-1.49,2.06q-2.2,3.12-4.16,6.36c-.44.72-.86,1.45-1.28,2.18q-1.25,2.19-2.38,4.43-1.71,3.36-3.16,6.83-1,2.31-1.82,4.66-1.28,3.52-2.3,7.13c-.91,3.19-1.67,6.44-2.27,9.7-.3,1.64-.56,3.28-.78,4.93-.12.89-.23,1.79-.32,2.69-.17,1.58-.31,3.17-.41,4.75,0,.83-.09,1.66-.12,2.5-.07,1.66-.09,3.33-.07,5q0,5,.58,10A103.27,103.27,0,0,0,66.73,207c.58.84,1.17,1.66,1.77,2.48l.56.75c.43.57.85,1.13,1.28,1.68l.66.83c.43.54.86,1.08,1.3,1.61l.63.75c.56.66,1.12,1.31,1.69,2a3.58,3.58,0,0,1,.26.29c.67.74,1.34,1.47,2,2.19l.57.58c.5.53,1,1,1.52,1.55.23.24.47.47.71.7.49.48,1,.95,1.48,1.41l.69.65,1.77,1.6.41.36c.75.65,1.5,1.29,2.26,1.91l.48.39c.6.48,1.2,1,1.81,1.43l.73.56L91,231.87l.74.54q.93.66,1.86,1.29l.53.37c.81.55,1.63,1.08,2.45,1.6l.31.19q1.06.67,2.16,1.32l.72.43,1.82,1,.78.44c.64.35,1.28.69,1.93,1l.63.33c1.72.88,3.46,1.7,5.21,2.48l.73.32c.64.27,1.29.55,1.94.81l.83.34,1.95.76c.25.09.5-.5.75-.41A7.4,7.4,0,0,0,119,245h0c.91,2,1.83,1.28,2.75,1.56.24.08.48.49.72.56.67.2,1.35.57,2,.75.29.09.59.25.89.33.65.18,1.3.38,1.95.54.29.07.57.17.85.24.79.18,1.57.37,2.36.54l.42.09c.93.2,1.87.38,2.81.55l.7.12c.7.13,1.4.24,2.1.35l.95.14,1.93.26.95.11c.72.09,1.43.16,2.15.23l.68.06c.95.09,1.89.16,2.83.21.21,0,.42,0,.63,0,.74,0,1.47.08,2.21.1.32,0,.65.11,1,.11.64,0,1.28.12,1.92.12h.93c1.11,0,2.23-.11,3.35-.15.15,0,.29,0,.43-.06,1,0,2-.12,3-.19l.8-.07c1.11-.08,2.22-.19,3.33-.31l.57-.07c1-.11,1.94-.24,2.91-.38l.78-.11c1.1-.17,2.2-.35,3.3-.55l.67-.13c1-.19,1.89-.38,2.83-.59l.75-.16c1.08-.25,2.17-.52,3.25-.8l.75-.2c.92-.25,1.85-.52,2.77-.8l.69-.2c1.07-.33,2.14-.68,3.2-1l.78-.28c.93-.32,1.86-.67,2.78-1l.58-.22c1.06-.42,2.11-.86,3.16-1.31l.79-.35c.94-.41,1.88-.85,2.82-1.29l.43-.21c1-.5,2.08-1,3.12-1.57l.76-.41c1-.53,1.94-1.06,2.91-1.62l.24-.14c1-.59,2-1.22,3-1.85l.74-.47c1-.65,2-1.32,3-2A103.82,103.82,0,0,0,234.13,212c1.06-1.34,2.07-2.7,3.05-4.09.49-.69,1-1.39,1.44-2.09.94-1.4,1.85-2.83,2.72-4.27.43-.72.86-1.44,1.27-2.17.84-1.46,1.63-2.94,2.39-4.44a103.84,103.84,0,0,0,5.8-13.84c.53-1.58,1-3.17,1.48-4.77.23-.8.45-1.6.65-2.41.42-1.61.8-3.23,1.14-4.85.17-.82.32-1.63.47-2.45a104.72,104.72,0,0,0,1.52-12.37c.15-2.49.22-5,.19-7.49C256.23,145.14,256.18,143.47,256.08,141.8Zm-5.77,24.09a99.61,99.61,0,1,1-16-74.52A99,99,0,0,1,250.31,165.89Z" transform="translate(-16.1 -12)"/><g class="cls-9"><rect class="cls-10" x="87.44" y="53.86" width="34.71" height="11.49" rx="5.74"/><rect class="cls-10" x="65.06" y="69.54" width="63.97" height="11.49" rx="5.64"/><rect class="cls-10" x="45.1" y="69.54" width="16.55" height="11.49" rx="5.64"/><rect class="cls-10" x="58.18" y="175.05" width="32.95" height="17.5" rx="8.75"/><path class="cls-10" d="M83,188H98.61c-.94,0-2.61-1.46-2.61-2.4v-.06c0-.94,1.67-1.54,2.61-1.54H83c.94,0,1,.6,1,1.54v.06C84,186.54,84,188,83,188Z" transform="translate(-16.1 -12)"/><rect class="cls-10" x="60.22" y="165" width="44.59" height="7.18" rx="3.48"/><rect class="cls-10" x="107.98" y="165" width="11.42" height="7.18" rx="3.47"/><rect class="cls-10" x="192.01" y="139.18" width="42.16" height="13.96" rx="6.95"/><path class="cls-10" d="M213.7,171h30.91c-1.87-2-2.61-2-2.61-3.41v-.1c0-1.42.74-3.49,2.61-3.49H213.7c1.87,0,3.3,2.07,3.3,3.49v.1C217,169,215.57,169,213.7,171Z" transform="translate(-16.1 -12)"/><rect class="cls-10" x="164.82" y="158.23" width="77.7" height="13.96" rx="6.9"/><rect class="cls-10" x="169.86" y="195.25" width="25.08" height="11.49" rx="5.64"/><rect class="cls-10" x="166.84" y="139.79" width="18.32" height="13.34" rx="6.51"/><rect class="cls-10" x="139.64" y="210.93" width="16.55" height="11.49" rx="5.73"/></g></g></g></svg>